<svg xmlns="http://www.w3.org/2000/svg" xmlns:xlink="http://www.w3.org/1999/xlink" viewBox="0 0 612 792"><defs><style>.cls-1{fill:none;}.cls-2{fill:#fff;}.cls-3{fill:#c68f72;}.cls-4{fill:#d1c009;}.cls-5{fill:#f3af89;}.cls-6{fill:#f8e100;}.cls-7{fill:#432a21;}.cls-8{fill:#54382e;}.cls-9{fill:#69493e;}.cls-10{fill:#3e261d;}.cls-11{fill:#946a5b;}.cls-12{fill:#755a50;}.cls-13{fill:#e39380;}.cls-14{fill:#bd8875;}.cls-15{clip-path:url(#clip-path);}.cls-16{fill:#f1f2f2;}.cls-17{fill:#5a3712;}.cls-18{fill:#231f20;}.cls-19{clip-path:url(#clip-path-2);}</style><clipPath id="clip-path"><path class="cls-1" d="M279.4,290a2.58,2.58,0,0,1-1.47,2.46c-.89.22-2-.57-2.93-2-2.17.6-5,1.29-8.27,1.92-1.83.36-3.83.71-6,1l-.91.12c-.86.12-1.8.24-2.8.34-2.13.24-4.55.48-7,.64-6.73.46-13.4.42-13.82-1.34s5.48-5.73,13.33-7.87a40.94,40.94,0,0,1,6.7-1.29c.58-.07,1.16-.12,1.77-.16h.39a43.73,43.73,0,0,1,7.15.25C272.92,285,279.21,287.46,279.4,290Z"/></clipPath><clipPath id="clip-path-2"><path class="cls-1" d="M328.93,289.74a2.56,2.56,0,0,0,1.46,2.45c.9.23,2-.56,2.94-1.95,2.16.6,5,1.28,8.26,1.92q2.76.54,6,1l.91.12c.86.12,1.81.24,2.81.35,2.13.24,4.55.48,7,.63,6.74.47,13.4.43,13.83-1.34s-5.48-5.72-13.33-7.86a40.94,40.94,0,0,0-6.7-1.29c-.58-.07-1.17-.12-1.77-.16a2.61,2.61,0,0,0-.39,0,43.73,43.73,0,0,0-7.15.26C335.41,284.7,329.12,287.21,328.93,289.74Z"/></clipPath></defs><g id="Layer_8" data-name="Layer 8"><rect class="cls-2" width="612" height="792"/></g><g id="hair"><path class="cls-3" d="M377,452.35c-.73-9.54-1.39-18.87-1.83-27.61-23.83,1-114.81,1-138.64,0-1.36,26.9-5,59.41-6.38,86.3l-38.26,17.79H294.26A305.63,305.63,0,0,1,377,452.35Z"/><path class="cls-4" d="M294.26,528.83H191.85L79.06,581.27A54.49,54.49,0,0,0,61.7,594,221.54,221.54,0,0,0,9.51,792H245.66a304.55,304.55,0,0,1,48.6-263.17Z"/><path class="cls-5" d="M419.52,528.83H294.26A305.63,305.63,0,0,1,377,452.35c1.53,19.82,3.38,40.53,4.3,58.69Z"/><path class="cls-6" d="M601.85,792H245.66a304.55,304.55,0,0,1,48.6-263.17H419.52L532.3,581.27A54.38,54.38,0,0,1,549.66,594a221.54,221.54,0,0,1,52.19,198Z"/><path class="cls-7" d="M185.63,193.94a213.52,213.52,0,0,1,4.49-43.65c-3.56,2-7,4-9.2,7.09-4.6,6.32-3.62,16.14-7.2,23.15S161.64,192.43,159.2,200s1.58,16.41.35,24.24c-1.2,7.63-7.79,15-7.79,23s6.59,15.33,7.79,23c1.23,7.84-2.75,16.86-.35,24.25s11,12.47,14.52,19.41,2.6,16.83,7.2,23.15,14.27,8.44,19.81,14,7.63,15.2,14,19.82,16.14,3.62,23.15,7.2,11.9,12.08,19.41,14.52,16.41-1.58,24.25-.35c7.63,1.2,15,7.79,23,7.79,6.53,0,12.66-4.43,18.86-6.68C242.87,362.79,185.63,285.05,185.63,193.94Z"/><path class="cls-8" d="M449.76,294.36c-2.44,7.51-11,12.47-14.53,19.41s-2.6,16.83-7.2,23.15-14.27,8.44-19.81,14-7.62,15.19-14,19.81-16.14,3.62-23.16,7.2-11.9,12.08-19.41,14.52-16.41-1.58-24.24-.35a21.88,21.88,0,0,0-4.1,1.11c-80.47-30.4-137.71-108.14-137.71-199.25a213.52,213.52,0,0,1,4.49-43.65c3.79-2.08,7.75-4,10.61-6.88,5.54-5.54,7.63-15.2,14-19.82s16.14-3.61,23.15-7.19,11.9-12.09,19.41-14.53,16.41,1.58,24.25.35c7.63-1.2,15-7.78,23-7.78s15.32,6.58,23,7.78c7.83,1.23,16.86-2.75,24.24-.35s12.48,11,19.41,14.53,16.84,2.59,23.16,7.19,8.43,14.28,14,19.82,15.19,7.62,19.82,14,3.61,16.14,7.19,23.15,12.09,11.9,14.53,19.42-1.58,16.41-.35,24.24c1.2,7.63,7.78,15,7.78,23s-6.58,15.33-7.78,23C448.18,278,452.15,287,449.76,294.36Z"/></g><g id="face"><path class="cls-3" d="M225.84,329.6a280.34,280.34,0,0,1,7-62.63c-6.24,2.95-14.42,10.29-14.42,10.29s3.58-10.45,8.77-17c1.43-1.79,4.5-3,8.3-3.91A277.68,277.68,0,0,1,256,203.25c-3.86-4.3-6-10.37-9.21-14.18-2.81-3.29-6.56-6.24-9.35-9.45a56.23,56.23,0,0,0-4.3,4.66c-9.95,12.17-14.73,31.48-20.45,69.6C209.2,277,209,296.33,208,310c-14-10-21.22-10.55-25.15-8.2-13.39,8-6.86,60.17,15.78,67.85a20.94,20.94,0,0,0,10.53.58,73.47,73.47,0,0,0,1.28,11.05A137.34,137.34,0,0,1,229,371.91,282.43,282.43,0,0,1,225.84,329.6Z"/><path class="cls-9" d="M210.39,381.3c2.06,11.18,6.87,25.32,16.23,40.45,3.15,5.1,12.51,21.15,29,33.52A277.82,277.82,0,0,1,229,371.91,137.34,137.34,0,0,0,210.39,381.3Z"/><path class="cls-10" d="M227.24,260.3c-5.19,6.51-8.77,17-8.77,17s8.18-7.34,14.42-10.29c.81-3.56,1.71-7.08,2.65-10.58C231.74,257.26,228.67,258.51,227.24,260.3Z"/><path class="cls-8" d="M312,127.7a18.73,18.73,0,0,0-7.74-2c-7.61,0-14.31,6.72-21.14,8.17-7.58,1.61-16.52-1.58-22.63,1.49-7.11,3.58-9.41,12.67-13.74,17.74-5.06,5.94-13.22,10.78-13.22,18,0,3.21,1.63,6,3.87,8.52,12.73-12.34,30.17-17.49,45.61-19.45A281.88,281.88,0,0,1,312,127.7Z"/><path class="cls-8" d="M246.75,189.07c3.25,3.81,5.35,9.88,9.21,14.18a279.7,279.7,0,0,1,27-43.08c-15.44,2-32.88,7.11-45.61,19.45C240.19,182.83,243.94,185.78,246.75,189.07Z"/><path class="cls-5" d="M426.16,301.82C422.22,299.47,415,300,401,310c-1.09-13.69-1.26-33-4.71-56.14-5.72-38.12-10.5-57.43-20.44-69.6a54.36,54.36,0,0,0-4.55-4.89c-2.81,3.3-6.67,6.31-9.55,9.68-4.32,5.08-6.62,14.17-13.73,17.75-6.11,3.07-15.06-.12-22.64,1.49-6.83,1.45-13.52,8.17-21.13,8.17s-14.31-6.72-21.14-8.17c-7.57-1.61-16.52,1.58-22.63-1.49a15.41,15.41,0,0,1-4.53-3.57,277.68,277.68,0,0,0-20.42,53.14c7.11-1.63,16.81-1.93,23.28-1.93,7.24,0,18.12,3.72,23.54,7.09,1.91,1.18,1.82,6.59-.27,7.41-5.4,2.11-12.88-1.24-16.83-3.1-5-2.34-23.1-1.17-29.24,0a13.17,13.17,0,0,0-3.13,1.11A282.25,282.25,0,0,0,229,371.91c21.32-8.86,47.34-14.08,75.46-14.08,36.95,0,70.31,9,94.09,23.47a73.34,73.34,0,0,0,1.27-11.05,20.94,20.94,0,0,0,10.53-.58C433,362,439.54,309.83,426.16,301.82Zm-149.7,43.05s5-3.92,10.78-2.21,9.07,8.09,9.07,8.09Zm36,5.88s3.3-6.37,9.06-8.09,10.79,2.21,10.79,2.21Zm60.29-84.89c-6.14-1.17-24.27-2.34-29.24,0-4,1.86-11.44,5.21-16.83,3.1-2.1-.82-2.19-6.23-.28-7.41,5.42-3.37,16.3-7.09,23.54-7.09,9.94,0,27.48.71,31.58,5.84,5.19,6.51,8.77,17,8.77,17S378.86,267,372.72,265.86Z"/><path class="cls-11" d="M304.48,357.83c-28.12,0-54.14,5.22-75.46,14.08a277.82,277.82,0,0,0,26.6,83.36,76,76,0,0,0,32.45,14.4,77.74,77.74,0,0,0,16.41,1.16,77.62,77.62,0,0,0,16.4-1.16c37.26-6.62,56.63-40.12,61.45-47.92,9.37-15.13,14.18-29.27,16.24-40.45C374.79,366.83,341.43,357.83,304.48,357.83Z"/><path class="cls-8" d="M265.26,265.86c3.95,1.86,11.43,5.21,16.83,3.1,2.09-.82,2.18-6.23.27-7.41-5.42-3.37-16.3-7.09-23.54-7.09-6.47,0-16.17.3-23.28,1.93-.94,3.5-1.84,7-2.65,10.58a13.17,13.17,0,0,1,3.13-1.11C242.16,264.69,260.29,263.52,265.26,265.86Z"/><path class="cls-12" d="M287.24,342.66c-5.76-1.71-10.78,2.21-10.78,2.21l19.85,5.88S293,344.38,287.24,342.66Z"/><path class="cls-8" d="M326.37,261.55c-1.91,1.18-1.82,6.59.28,7.41,5.39,2.11,12.87-1.24,16.83-3.1,5-2.34,23.1-1.17,29.24,0s17.54,11.4,17.54,11.4-3.58-10.45-8.77-17c-4.1-5.13-21.64-5.84-31.58-5.84C342.67,254.46,331.79,258.18,326.37,261.55Z"/><path class="cls-12" d="M321.49,342.66c-5.76,1.72-9.06,8.09-9.06,8.09l19.85-5.88S327.25,341,321.49,342.66Z"/><path class="cls-13" d="M306.33,414h-.16c-16.95-.9-21.48-3-32.08-8.85a98,98,0,0,1-27.28-22.28,3.5,3.5,0,0,1,2.05-5.72c15-2.66,19.35-4.34,22.87-5.68a47.54,47.54,0,0,1,5-1.7,67.64,67.64,0,0,1,14-1.92h.56a50.39,50.39,0,0,1,13.09,2.26c3.95-1.48,10.51-2.2,13.08-2.26H318A67.63,67.63,0,0,1,332,369.8a47.54,47.54,0,0,1,5,1.7c3.52,1.34,7.9,3,22.88,5.68a3.51,3.51,0,0,1,2.05,5.72,98.13,98.13,0,0,1-27.29,22.28c-11,6.1-17.63,7.76-26.69,8.83l-.38,0h-1.24Zm-35.79-28.63a143.22,143.22,0,0,0,13.92,6,80.39,80.39,0,0,0,19.91,4.14,80.59,80.59,0,0,0,19.9-4.14,144.3,144.3,0,0,0,13.92-6c-3.54-.76-7.34-1.45-10.44-2A120.65,120.65,0,0,0,308,381.81c-1.25,0-2.42,0-3.5.06h-.24c-1.08,0-2.25-.06-3.5-.06A120.49,120.49,0,0,0,281,383.42C277.89,384,274.08,384.65,270.54,385.41Z"/><path class="cls-5" d="M318,371.38a64.05,64.05,0,0,1,13,1.8c6.47,1.75,6.7,3.62,28.22,7.45A95.37,95.37,0,0,1,333,402.12c-10.58,5.86-16.74,7.39-25.41,8.42h-1.18c-16-.86-20-2.56-30.58-8.42a95.14,95.14,0,0,1-26.31-21.49c21.52-3.83,21.74-5.7,28.21-7.45a64.06,64.06,0,0,1,13-1.8h.49c3.67.08,11,1.25,13.16,2.61,2.14-1.36,9.48-2.53,13.16-2.61H318m-13.65,7c-1.12,0-2.33-.06-3.62-.06A124.28,124.28,0,0,0,280.39,380c-6.17,1.08-14.24,2.59-18.86,4.17,4.28,3.27,13.28,7.39,21.71,10.53a84.4,84.4,0,0,0,21,4.36v0h.22v0a84.33,84.33,0,0,0,21-4.36c8.43-3.14,17.43-7.26,21.72-10.53-4.62-1.58-12.7-3.09-18.86-4.17A124.45,124.45,0,0,0,308,378.31c-1.29,0-2.51,0-3.62.06m13.65-14h-.63a56.43,56.43,0,0,0-13,2.08,56.52,56.52,0,0,0-13-2.08h-.64a71.33,71.33,0,0,0-14.87,2,52.84,52.84,0,0,0-5.37,1.81c-3.38,1.29-7.58,2.9-22.24,5.51a7,7,0,0,0-4.09,11.43,101.69,101.69,0,0,0,28.24,23.08c11.32,6.26,16.42,8.36,33.59,9.28h1.62a6.33,6.33,0,0,0,.76-.05c9.52-1.12,16.46-2.86,28-9.25a101.88,101.88,0,0,0,28.25-23.06,7,7,0,0,0-4.09-11.44c-14.66-2.61-18.87-4.22-22.25-5.51a52.84,52.84,0,0,0-5.37-1.81,71.31,71.31,0,0,0-14.86-2Zm-13.65,21h.25c1.06,0,2.19-.06,3.37-.06a119.16,119.16,0,0,1,18.55,1.45c-1.15.46-2.31.91-3.49,1.35a76.21,76.21,0,0,1-18.68,3.9,76.47,76.47,0,0,1-18.69-3.9c-1.18-.44-2.34-.89-3.49-1.35a119,119,0,0,1,18.56-1.45c1.18,0,2.31,0,3.37.06Z"/><path class="cls-2" d="M304.26,399.05h.22v0a84.33,84.33,0,0,0,21-4.36c8.43-3.14,17.43-7.26,21.72-10.53-4.62-1.58-12.7-3.09-18.86-4.17a124.41,124.41,0,0,0-24-1.6,124.31,124.31,0,0,0-24,1.6c-6.17,1.08-14.24,2.59-18.86,4.17,4.28,3.27,13.28,7.39,21.71,10.53a84.4,84.4,0,0,0,21,4.36Z"/><path class="cls-8" d="M375,171.1c0,3.11-1.53,5.78-3.67,8.29C352,160.86,322,158.74,304.48,159.13a147.32,147.32,0,0,0-21.47,1,281.88,281.88,0,0,1,29-32.47c4.6,2.1,9,5.25,13.39,6.19,7.58,1.6,16.53-1.59,22.63,1.49,7.12,3.58,9.42,12.67,13.74,17.74C366.83,159.06,375,163.9,375,171.1Z"/><path class="cls-8" d="M304.48,159.13a147.32,147.32,0,0,0-21.47,1,279.7,279.7,0,0,0-27,43.08,15.41,15.41,0,0,0,4.53,3.57c6.11,3.07,15.06-.12,22.64,1.49,6.82,1.45,13.52,8.17,21.13,8.17s14.3-6.72,21.13-8.17c7.58-1.61,16.53,1.58,22.64-1.49,7.11-3.58,9.41-12.67,13.73-17.75,2.88-3.37,6.74-6.38,9.55-9.68C352,160.86,322,158.74,304.48,159.13Z"/></g><g id="Layer_7" data-name="Layer 7"><path class="cls-14" d="M271.28,299.57a36.09,36.09,0,0,1-32.34.3,2.13,2.13,0,0,0-1.4.16c-.08,0-1,.41-.66.56a40.26,40.26,0,0,0,36-1c.42-.22.22-.35-.11-.41a2.77,2.77,0,0,0-1.53.41Z"/><path class="cls-14" d="M274.23,279.05c-6.32-1.91-13-2.75-19.48-1.46a37.55,37.55,0,0,0-14.25,6.47c-2.27,1.61-4.41,3.39-6.54,5.18-.75.64.41,1.12,1,.66,4.61-3.9,9.4-7.7,15.1-9.89,7.57-2.91,15.72-2.3,23.37,0,.62.18,1.71-.71.84-1Z"/><path class="cls-14" d="M335.61,299.93a40.08,40.08,0,0,0,35.83.41c1.28-.62-.75-.44-1.23-.21a36.33,36.33,0,0,1-32.55-.92,2,2,0,0,0-1.39.16c-.09,0-1,.4-.66.56Z"/><path class="cls-14" d="M335.06,280c7.69-2.32,15.8-2.9,23.41,0,5.76,2.19,10.61,6,15.27,10,.48.41,1.75-.3,1.11-.84a63.32,63.32,0,0,0-12.2-8.62A33.28,33.28,0,0,0,346.79,277a45.43,45.43,0,0,0-12,2.08c-.88.26-.63,1.25.27,1Z"/></g><g id="eye"><g class="cls-15"><path class="cls-16" d="M279.4,290a2.58,2.58,0,0,1-1.47,2.46c-.89.22-2-.57-2.93-2-2.17.6-5,1.29-8.27,1.92-1.83.36-3.83.71-6,1l-.91.12c-.86.12-1.8.24-2.8.34-2.13.24-4.55.48-7,.64-6.73.46-13.4.42-13.82-1.34s5.48-5.73,13.33-7.87a40.94,40.94,0,0,1,6.7-1.29c.58-.07,1.16-.12,1.77-.16h.39a43.73,43.73,0,0,1,7.15.25C272.92,285,279.21,287.46,279.4,290Z"/><path class="cls-17" d="M266.73,292.39c-1.83.36-3.83.71-6,1l-.91.12c-.86.12-1.8.24-2.8.34-2.13.24-4.55.48-7,.64a6.16,6.16,0,0,1-2.38-4.13,6.34,6.34,0,0,1,1.89-5.08,40.94,40.94,0,0,1,6.7-1.29c.58-.07,1.16-.12,1.77-.16h.39a42.65,42.65,0,0,1,7.15.26,6.13,6.13,0,0,1,2.32,4A6.23,6.23,0,0,1,266.73,292.39Z"/><path class="cls-18" d="M262.9,288.87a5.09,5.09,0,0,1-3,4.66c-.86.12-1.8.24-2.8.34a5.07,5.07,0,0,1-.75-9.86c.58-.07,1.16-.12,1.77-.16h.39A5.05,5.05,0,0,1,262.9,288.87Z"/></g></g><g id="eye_2" data-name="eye 2"><g class="cls-19"><path class="cls-16" d="M328.93,289.74a2.56,2.56,0,0,0,1.46,2.45c.9.23,2-.56,2.94-1.95,2.16.6,5,1.28,8.26,1.92q2.76.54,6,1l.91.12c.86.12,1.81.24,2.81.35,2.13.24,4.55.48,7,.63,6.74.47,13.4.43,13.83-1.34s-5.48-5.72-13.33-7.86a40.94,40.94,0,0,0-6.7-1.29c-.58-.07-1.17-.12-1.77-.16a2.61,2.61,0,0,0-.39,0,43.73,43.73,0,0,0-7.15.26C335.41,284.7,329.12,287.21,328.93,289.74Z"/><path class="cls-17" d="M341.59,292.14c1.84.36,3.83.71,6,1l.91.12c.86.13,1.81.25,2.81.35,2.13.24,4.55.48,7,.63a6.13,6.13,0,0,0,2.39-4.12,6.34,6.34,0,0,0-1.89-5.08,40.94,40.94,0,0,0-6.7-1.29c-.58-.07-1.17-.12-1.77-.16h-.39a43.73,43.73,0,0,0-7.15.25,6.13,6.13,0,0,0-2.32,4.06A6.22,6.22,0,0,0,341.59,292.14Z"/><path class="cls-18" d="M345.42,288.62a5.1,5.1,0,0,0,3,4.65c.86.13,1.81.25,2.81.35a5.07,5.07,0,0,0,.75-9.86c-.58-.07-1.17-.12-1.77-.16h-.39A5.05,5.05,0,0,0,345.42,288.62Z"/></g></g></svg>