<svg xmlns="http://www.w3.org/2000/svg" viewBox="0 0 479.08 739.55"><defs><style>.cls-1{fill:#f0ae89;}.cls-2{fill:#401c5a;}.cls-3{fill:#997058;}.cls-4{fill:#240038;}.cls-5{fill:#2e231f;}.cls-6{fill:#181311;}.cls-7{fill:#211915;}.cls-8{fill:#342922;}.cls-9{fill:#382b2c;}.cls-10{fill:#c48f71;}.cls-11{fill:#57423a;}.cls-12{fill:#b09416;}.cls-13{fill:#1a1a1a;}.cls-14{fill:#6c544b;}.cls-15{fill:#c2a21a;}.cls-16{fill:#d99491;}.cls-17{fill:#fff;}.cls-18{fill:#2e2e2e;}</style></defs><g id="hair"><path class="cls-1" d="M269.89,271.6c.51,16.08-11,87-10.46,103.1A472.12,472.12,0,0,0,175.17,387c-31.79,7.63-42.38,13.77-50.55,20.68-16.57,14-23.72,31.54-29.11,45.19C86.08,476.73,84.69,497,84,508,80.53,565.7,78.78,594.57,80.19,619c2.26,39.24,3.06,96.38-3.83,173h238.7v.83H555.44c-6.89-76.58-6.09-133.72-3.83-173,1.41-24.48-.33-53.34-3.83-111.06-.66-11-2-31.25-11.48-55.15-5.39-13.65-12.55-31.2-29.11-45.19-8.18-6.91-18.76-13.05-50.55-20.69a473.33,473.33,0,0,0-84.26-12.25c.51-16.09-10.23-89.78-9.72-105.86-18.67,5.72-27.37,11.47-45.61,18.8C316.2,288.81,289,277.47,269.89,271.6Z" transform="translate(-76.36 -53.27)"/><ellipse class="cls-2" cx="315.14" cy="792.36" rx="0.51" ry="0.11" transform="translate(-554.59 1051.68) rotate(-89.82)"/><path class="cls-2" d="M316,792.72h239.4c-6.89-76.58-6.09-133.72-3.83-173,1.41-24.48-.33-53.34-3.83-111.06-.66-11-2-31.25-11.48-55.15-5.39-13.65-12.55-31.2-29.11-45.19-8.18-6.91-18.76-13.05-50.55-20.68a459.05,459.05,0,0,0-83.26-12.26c.07-2.33-2.76-31.16-2.76-31.16H311.27A324.67,324.67,0,0,0,316,792.72Z" transform="translate(-76.36 -53.27)"/><path class="cls-2" d="M80.34,619c-1.41-24.47.34-53.34,3.83-111.06.67-11,2.06-31.25,11.49-55.15,5.39-13.65,12.54-31.2,29.11-45.19,8.17-6.91,18.76-13.05,50.55-20.68a472.12,472.12,0,0,1,84.26-12.26c0-.84,0-1.85,0-3-.11,1.46-.18,2.48-.16,2.87a472.12,472.12,0,0,0-84.26,12.26c-31.79,7.63-42.38,13.77-50.55,20.68-16.57,14-23.72,31.54-29.11,45.19-9.43,23.9-10.82,44.17-11.49,55.15-3.49,57.72-5.24,86.59-3.83,111.06,2.26,39.24,3.06,96.39-3.83,173h.16C83.4,715.37,82.6,658.26,80.34,619Z" transform="translate(-76.36 -53.27)"/><path class="cls-3" d="M261.28,344.26,270,271.6c19.15,5.87,46.31,17.21,47.16,16.87,18.24-7.33,26.94-13.08,45.61-18.8-.16,5,.78,15.66,2.13,28.41a326.8,326.8,0,0,0-53.67,46.18h-49" transform="translate(-76.36 -53.27)"/><path class="cls-1" d="M76.52,791.89V792H315.06v-.11Z" transform="translate(-76.36 -53.27)"/><path class="cls-1" d="M315.21,792.72v.11h.93l-.1-.11Z" transform="translate(-76.36 -53.27)"/><path class="cls-4" d="M223.76,566a323.52,323.52,0,0,1,87.51-221.73h-50c.24.61-2.9,22.9-2.7,30.44A458.91,458.91,0,0,0,175.32,387c-31.79,7.63-42.38,13.77-50.55,20.68-16.57,14-23.72,31.54-29.11,45.19C86.23,476.73,84.84,497,84.17,508,80.68,565.7,78.93,594.57,80.34,619c2.26,39.22,3.06,96.33-3.82,172.85H315.06V792h.15v.72H316A323.67,323.67,0,0,1,223.76,566Z" transform="translate(-76.36 -53.27)"/><path class="cls-5" d="M402.54,674.9s.69-7.67,0-11.25c0,0-2.87,8.69-3,13.29l-4.31,2s-.58-8.85.94-12.94c0,0-3.11-.85-3.06,8.52s2,10.9,2,10.9-5.43-5.28-5.6-16.35,5.75-16,5.75-16l3-7.49h7.75l-.38,6.81s4.8,7.84,2.4,21.12-5.4,15.67-5.4,15.67,3.17-16.18,3-20.44Z" transform="translate(-76.36 -53.27)"/><path class="cls-5" d="M230.3,674.9s-.69-7.67,0-11.25c0,0,2.87,8.69,3,13.29l4.31,2s.59-8.85-.94-12.94c0,0,3.11-.85,3.06,8.52s-2,10.9-2,10.9,5.43-5.28,5.6-16.35-5.75-16-5.75-16l-3-7.49h-7.75l.38,6.81s-4.8,7.84-2.4,21.12,5.4,15.67,5.4,15.67-3.17-16.18-3-20.44Z" transform="translate(-76.36 -53.27)"/><path class="cls-5" d="M423.52,158a106.47,106.47,0,1,1-212.94,0c0-51.35,35.72-98,84.74-104.25,8.9-1.13,14.5.74,17.78,2.72a7.35,7.35,0,0,0,7.78-.08c3.24-2,8.79-4,17.63-2.7C387.51,60.87,423.52,106.55,423.52,158Z" transform="translate(-76.36 -53.27)"/><path class="cls-6" d="M233.19,651.88c3,1.56,3.8,1.27,4.18,1.07,1-.52.89-3.5-1-5.18-1.28-1.16-4.2-1.71-4.85-1.73-.74,1.12-1.18,2.22-1.91,3.35C230.32,649.74,231.93,651.24,233.19,651.88Z" transform="translate(-76.36 -53.27)"/><path class="cls-7" d="M228.24,642.92a8.43,8.43,0,0,0-1.75,3.29c-.65,2.55.11,5.43,1.14,5.5.64,0,1.3-1,2.52-2.91a24.82,24.82,0,0,0,1.75-3.29Z" transform="translate(-76.36 -53.27)"/><path class="cls-8" d="M229.63,644.35c4.69,4.27,6.67,4.89,7.54,4.4,1.11-.63.77-3.32-.2-5.06-1.73-3.12-5.74-3.69-6.39-3.77Z" transform="translate(-76.36 -53.27)"/><path class="cls-9" d="M226.53,637.11a9.1,9.1,0,0,0-1.26,2.91c-.54,2.39-.11,5.38,1.07,5.56a6,6,0,0,0,3.29-1.23,6.73,6.73,0,0,0,1-4.43C229.55,639.25,227.56,637.78,226.53,637.11Z" transform="translate(-76.36 -53.27)"/><path class="cls-6" d="M232.26,641.52c4.31,2.13,5.4,1.72,5.93,1.43,1.37-.72,1.31-4.87-1.31-7.17-1.81-1.6-6-2.34-6.88-2.37-1.06,1.58-1.7,3.11-2.75,4.69C228.2,638.57,230.47,640.63,232.26,641.52Z" transform="translate(-76.36 -53.27)"/><path class="cls-7" d="M225.32,629.12a11.8,11.8,0,0,0-2.53,4.58c-1,3.56.1,7.55,1.56,7.64.91,0,1.87-1.41,3.62-4.08a32.76,32.76,0,0,0,2.52-4.58Z" transform="translate(-76.36 -53.27)"/><path class="cls-8" d="M227.28,631.08c6.62,5.9,9.43,6.74,10.67,6,1.59-.9,1.13-4.63-.23-7-2.44-4.31-8.13-5.05-9.05-5.16Z" transform="translate(-76.36 -53.27)"/><path class="cls-9" d="M222.93,621.06a12.86,12.86,0,0,0-1.81,4.05c-.8,3.33-.22,7.48,1.46,7.73,1.51.22,4.51-1.46,4.7-1.76a9.27,9.27,0,0,0,1.39-6.15C227.21,624,224.4,622,222.93,621.06Z" transform="translate(-76.36 -53.27)"/><path class="cls-6" d="M230.81,627.69c4.67,2.3,5.86,1.84,6.44,1.54,1.49-.79,1.43-5.27-1.41-7.76-2-1.72-6.47-2.52-7.47-2.54-1.16,1.7-1.85,3.36-3,5.07C226.4,624.5,228.86,626.73,230.81,627.69Z" transform="translate(-76.36 -53.27)"/><path class="cls-7" d="M223.28,614.29a12.78,12.78,0,0,0-2.75,5c-1.05,3.85.08,8.17,1.68,8.26,1,0,2-1.53,3.94-4.42a37.14,37.14,0,0,0,2.75-5Z" transform="translate(-76.36 -53.27)"/><path class="cls-8" d="M225.41,616.42c7.19,6.35,10.24,7.26,11.59,6.51,1.74-1,1.23-5-.24-7.6-2.64-4.67-8.83-5.46-9.82-5.57Z" transform="translate(-76.36 -53.27)"/><path class="cls-9" d="M220.7,605.59a13.65,13.65,0,0,0-2,4.38c-.88,3.6-.26,8.09,1.57,8.35,1.64.24,4.91-1.59,5.11-1.9a10.15,10.15,0,0,0,1.53-6.66C225.35,608.77,222.29,606.58,220.7,605.59Z" transform="translate(-76.36 -53.27)"/><path class="cls-6" d="M229.74,613.18c5.25,2.78,6.56,2.27,7.2,1.92,1.64-.89,1.49-6.15-1.71-9.12-2.22-2.06-7.25-3.07-8.36-3.12-1.26,2-2,3.91-3.25,5.89C224.78,609.36,227.56,612,229.74,613.18Z" transform="translate(-76.36 -53.27)"/><path class="cls-7" d="M221.12,597.33a14.66,14.66,0,0,0-3,5.76c-1.1,4.5.25,9.58,2,9.72,1.1.08,2.23-1.75,4.3-5.11a41.19,41.19,0,0,0,3-5.76Z" transform="translate(-76.36 -53.27)"/><path class="cls-8" d="M223.53,599.86c8.12,7.59,11.53,8.7,13,7.85,1.91-1.11,1.28-5.85-.41-8.92-3-5.52-9.92-6.56-11-6.71C224.58,594.67,224.06,597.26,223.53,599.86Z" transform="translate(-76.36 -53.27)"/><path class="cls-9" d="M218.09,587.08a16,16,0,0,0-2.11,5.1c-.92,4.2-.14,9.48,1.9,9.82,1.83.3,5.43-1.77,5.65-2.14a12.13,12.13,0,0,0,1.58-7.78C223.32,590.89,219.88,588.27,218.09,587.08Z" transform="translate(-76.36 -53.27)"/><path class="cls-6" d="M228.63,595.24c5.74,2.72,7.21,2.16,7.93,1.79,1.85-1,1.81-6.35-1.66-9.31-2.41-2.06-8-3-9.21-3-1.44,2.07-2.31,4.07-3.75,6.13C223.21,591.45,226.23,594.11,228.63,595.24Z" transform="translate(-76.36 -53.27)"/><path class="cls-7" d="M219.46,579.2a15.55,15.55,0,0,0-3.44,6c-1.34,4.64,0,9.82,2,9.91,1.22.06,2.52-1.85,4.9-5.34a43.75,43.75,0,0,0,3.45-6Z" transform="translate(-76.36 -53.27)"/><path class="cls-8" d="M222.07,581.73c8.81,7.58,12.57,8.64,14.24,7.72,2.15-1.17,1.57-6-.22-9.13-3.21-5.59-10.85-6.48-12.07-6.6Z" transform="translate(-76.36 -53.27)"/><path class="cls-9" d="M216.36,568.76a16.76,16.76,0,0,0-2.48,5.29c-1.12,4.33-.39,9.72,1.87,10,2,.27,6.07-2,6.32-2.34a12,12,0,0,0,2-8C222.06,572.54,218.32,569.94,216.36,568.76Z" transform="translate(-76.36 -53.27)"/><path class="cls-6" d="M227.58,576.19c6.4,2.44,8.09,1.82,8.93,1.42,2.13-1,2.33-6.35-1.48-9.12-2.64-1.93-8.9-2.58-10.31-2.55-1.72,2.1-2.8,4.11-4.53,6.22C221.61,572.69,224.92,575.18,227.58,576.19Z" transform="translate(-76.36 -53.27)"/><path class="cls-7" d="M217.9,560.76a16.86,16.86,0,0,0-4.17,6.06c-1.72,4.64-.4,9.7,1.83,9.71,1.38,0,2.93-1.94,5.79-5.5a48.18,48.18,0,0,0,4.17-6.06Z" transform="translate(-76.36 -53.27)"/><path class="cls-8" d="M220.75,563.14c9.66,7.1,13.87,8,15.81,7,2.49-1.26,2-6,.15-9-3.4-5.37-12-5.91-13.4-6C222.46,557.8,221.6,560.47,220.75,563.14Z" transform="translate(-76.36 -53.27)"/><path class="cls-9" d="M214.85,550.58a17.25,17.25,0,0,0-3,5.33c-1.46,4.33-.87,9.63,1.67,9.82,2.29.18,7-2.19,7.28-2.59a11.25,11.25,0,0,0,2.56-8C221.15,554.06,217,551.66,214.85,550.58Z" transform="translate(-76.36 -53.27)"/><path class="cls-6" d="M227.91,559.5c7.87,3.26,9.92,2.5,10.94,2,2.58-1.28,2.72-8.14-2-11.79-3.27-2.53-10.94-3.5-12.65-3.49-2.06,2.67-3.34,5.25-5.41,7.92C220.54,554.86,224.64,558.14,227.91,559.5Z" transform="translate(-76.36 -53.27)"/><path class="cls-7" d="M215.77,539.41a20.91,20.91,0,0,0-5,7.73c-2,6-.29,12.49,2.43,12.54,1.69,0,3.55-2.44,7-7a58.86,58.86,0,0,0,5-7.73Z" transform="translate(-76.36 -53.27)"/><path class="cls-8" d="M219.3,542.54c11.94,9.34,17.11,10.56,19.46,9.34,3-1.58,2.38-7.72,0-11.62-4.26-7-14.8-7.86-16.49-8Z" transform="translate(-76.36 -53.27)"/><path class="cls-9" d="M211.83,526.24a22,22,0,0,0-3.61,6.81c-1.7,5.55-.87,12.38,2.24,12.68,2.79.27,8.47-2.69,8.84-3.19a14.74,14.74,0,0,0,3-10.26C219.6,530.85,214.5,527.67,211.83,526.24Z" transform="translate(-76.36 -53.27)"/><path class="cls-6" d="M227.42,535.77c8.33,3.6,10.48,2.8,11.55,2.27,2.72-1.37,2.8-8.79-2.2-12.78-3.47-2.77-11.56-3.89-13.36-3.89-2.16,2.87-3.49,5.65-5.64,8.53C219.61,530.69,224,534.27,227.42,535.77Z" transform="translate(-76.36 -53.27)"/><path class="cls-7" d="M214.45,513.92c-1.7,1.77-6.3,5.2-7.49,8.91-2.06,6.41,2.1,12.94,5,13,1.78,0,3.73-2.61,7.29-7.48A61.71,61.71,0,0,0,224.4,520Z" transform="translate(-76.36 -53.27)"/><path class="cls-8" d="M218.19,517.34c12.68,10.22,18.14,11.58,20.6,10.27,3.17-1.67,2.45-8.33-.09-12.57-4.55-7.61-15.68-8.65-17.46-8.79Z" transform="translate(-76.36 -53.27)"/><path class="cls-9" d="M210.18,499.62a23.37,23.37,0,0,0-3.75,7.35c-1.74,6-.81,13.39,2.47,13.75,2.95.32,8.91-2.84,9.29-3.38a16,16,0,0,0,3.05-11.09C218.41,504.67,213,501.19,210.18,499.62Z" transform="translate(-76.36 -53.27)"/><path class="cls-6" d="M227.4,512.1c8.61,3.56,10.85,2.73,12,2.18,2.83-1.4,3-8.89-2.17-12.88-3.57-2.76-12-3.82-13.83-3.81-2.26,2.92-3.66,5.74-5.92,8.66C219.34,507,223.82,510.61,227.4,512.1Z" transform="translate(-76.36 -53.27)"/><path class="cls-7" d="M210.16,490.7c-1.77,1.81-2.4,3.87-3.67,7.62-2.19,6.49,1.87,13.93,4.84,14,1.85,0,3.89-2.67,7.63-7.62a64.84,64.84,0,0,0,5.44-8.45C221,494.21,213.58,492.73,210.16,490.7Z" transform="translate(-76.36 -53.27)"/><path class="cls-8" d="M218,493.57c13.07,10.2,18.72,11.53,21.29,10.2,3.3-1.72,2.6-8.44,0-12.7-4.66-7.63-16.19-8.59-18-8.71Q219.61,488,218,493.57Z" transform="translate(-76.36 -53.27)"/><path class="cls-9" d="M209.82,475.76a23.89,23.89,0,0,0-3.95,7.44c-1.86,6.07-1,13.53,2.44,13.86,3.06.3,9.27-2.94,9.67-3.49a16.07,16.07,0,0,0,3.26-11.21C218.32,480.79,212.74,477.32,209.82,475.76Z" transform="translate(-76.36 -53.27)"/><path class="cls-6" d="M226.32,490.5c9.07,3.24,11.47,2.37,12.67,1.8,3-1.43,4.52-12.06-.86-15.81-3.73-2.6-11.51-6.59-13.5-6.53-2.48,2.91-6.27,12.2-8.75,15.11C217.89,485.78,222.55,489.15,226.32,490.5Z" transform="translate(-76.36 -53.27)"/><path class="cls-7" d="M213.32,466.5a27.31,27.31,0,0,0-7.27,8.39c-3.18,6.29-1.5,12.87,2.09,12.68,2.23-.12,8.17-2,13.1-6.94,3.45-3.48,2.55-7.27,4-9.23Z" transform="translate(-76.36 -53.27)"/><path class="cls-8" d="M216.22,469.21c13.62,9.59,19.61,10.73,22.37,9.35,3.56-1.76,3-8.29.35-12.37-4.74-7.31-17-7.93-18.95-8Q218.1,463.7,216.22,469.21Z" transform="translate(-76.36 -53.27)"/><path class="cls-9" d="M210.8,451.83a24.64,24.64,0,0,0-4.6,7.25c-2.29,5.9-1.72,13.17,1.88,13.5,3.24.29,10-2.86,10.47-3.4,3.9-4.55,4.29-9.26,4.06-10.92C219.58,456.74,213.83,453.36,210.8,451.83Z" transform="translate(-76.36 -53.27)"/><path class="cls-6" d="M224.33,465.12c8.89,5,11.16,4.18,12.29,3.6,2.86-1.45,2.84-10.48-2.52-15.7-3.72-3.63-12.33-5.59-14.25-5.72-2.24,3.34-3.61,6.62-5.86,10C216,458.36,220.63,463,224.33,465.12Z" transform="translate(-76.36 -53.27)"/><path class="cls-7" d="M214.39,437.67a29.21,29.21,0,0,0-7.81,9.83c-3.39,7.54-1.49,15.78,2.42,15.8,2.42,0,7.61-1.78,12.91-7.55,3.72-4.05,4-8.86,5.52-11.18Z" transform="translate(-76.36 -53.27)"/><path class="cls-8" d="M215.79,444c13.6,13.37,19.43,15.43,22,14,3.34-1.81,2.47-10-.28-15.31-4.95-9.59-16.77-11.67-18.67-12Q217.33,437.36,215.79,444Z" transform="translate(-76.36 -53.27)"/><path class="cls-9" d="M209.58,420a27.7,27.7,0,0,0-3.88,8.66c-1.76,7.16-.66,16.24,2.83,16.91,3.13.61,9.42-2.79,9.81-3.42a20.81,20.81,0,0,0,3.08-13.27C218.39,426.73,212.6,422.09,209.58,420Z" transform="translate(-76.36 -53.27)"/><path class="cls-6" d="M227.55,439.06c8.89,5,11.16,4.18,12.29,3.61,2.86-1.46,2.84-10.48-2.52-15.71-3.72-3.63-12.33-5.58-14.25-5.72-2.24,3.34-3.61,6.62-5.86,10C219.18,432.3,223.85,437,227.55,439.06Z" transform="translate(-76.36 -53.27)"/><path class="cls-7" d="M212,408.58a25.2,25.2,0,0,0-5.38,9.75c-2.09,7.66,0,16.44,3,16.74,1.89.19,8.49-2.59,12.2-8.25,2.61-4,2.45-7.75,3.5-10.07C221.83,414,215.59,411.3,212,408.58Z" transform="translate(-76.36 -53.27)"/><path class="cls-8" d="M217.48,416c13.6,13.36,19.42,15.42,22,14,3.34-1.81,2.47-10-.28-15.31-4.95-9.59-16.77-11.68-18.67-12Q219,409.32,217.48,416Z" transform="translate(-76.36 -53.27)"/><path class="cls-9" d="M208.72,393.8a27.43,27.43,0,0,0-3.88,8.67c-1.76,7.16-.67,16.24,2.82,16.91,3.14.61,9.42-2.8,9.82-3.42a20.85,20.85,0,0,0,3.07-13.27C217.53,400.56,211.74,395.93,208.72,393.8Z" transform="translate(-76.36 -53.27)"/><path class="cls-7" d="M214.4,379a26.62,26.62,0,0,0-6.38,9.75c-2.92,8-1.86,17.81,1.09,18.6,1.83.49,4.17-2.55,8.45-8.13a75.16,75.16,0,0,0,6.38-9.75Z" transform="translate(-76.36 -53.27)"/><path class="cls-6" d="M223.23,408.41c7.36,7.62,9.73,7.34,11,7,3.08-.81,5.16-10.42,1.24-17.37-2.73-4.83-10.52-9.15-12.33-9.79-2.93,3-5,6.11-7.93,9.08C216.79,399,220.17,405.23,223.23,408.41Z" transform="translate(-76.36 -53.27)"/><path class="cls-8" d="M217.85,384.39c11.85,16.53,17.34,19.65,20,18.52,3.48-1.46,3.55-10.43,1.44-16.63-3.77-11.14-15.15-15.18-17-15.8Q220.11,377.43,217.85,384.39Z" transform="translate(-76.36 -53.27)"/><path class="cls-9" d="M212.66,359.37a30.06,30.06,0,0,0-4.54,8.92c-2.34,7.56-2,17.55,1.35,18.72,3,1.06,9.52-1.85,10-2.48a23.89,23.89,0,0,0,4.15-14C220.78,367.82,215.46,362.06,212.66,359.37Z" transform="translate(-76.36 -53.27)"/><path class="cls-7" d="M216,345.65a26.31,26.31,0,0,0-6.12,9.91c-2.71,8.05-1.4,17.85,1.57,18.56,1.85.45,4.11-2.66,8.24-8.34a76,76,0,0,0,6.12-9.91Z" transform="translate(-76.36 -53.27)"/><path class="cls-6" d="M227.57,377.33c8.33,6.54,10.65,5.94,11.8,5.46,2.95-1.22,3.69-11-1.16-17.38-3.36-4.4-11.67-7.61-13.55-8-2.49,3.35-4.12,6.74-6.61,10.09C219.9,368.94,224.1,374.61,227.57,377.33Z" transform="translate(-76.36 -53.27)"/><path class="cls-9" d="M214.52,328a29.93,29.93,0,0,0-4.55,8.92c-2.34,7.56-2,17.56,1.36,18.73,3,1.05,9.51-1.86,9.95-2.49a23.87,23.87,0,0,0,4.15-14C222.63,336.42,217.32,330.66,214.52,328Z" transform="translate(-76.36 -53.27)"/><path class="cls-8" d="M220.64,353.57c12.28,16.22,17.84,19.19,20.51,18,3.44-1.54,3.28-10.51,1-16.66-4.06-11-15.54-14.78-17.38-15.35Z" transform="translate(-76.36 -53.27)"/><path class="cls-6" d="M226.87,350c10,6.84,12.53,5.91,13.75,5.23,3.11-1.72,2.7-13.28-3.46-20.24-4.28-4.83-13.88-7.76-16-8-2.34,4.17-3.71,8.3-6.05,12.47C217.33,340.93,222.69,347.16,226.87,350Z" transform="translate(-76.36 -53.27)"/><path class="cls-7" d="M216.8,318.5a28.11,28.11,0,0,0-7,10.25c-3.2,8.33-2,18.5,1.29,19.25,2,.47,4.61-2.74,9.33-8.61a82.15,82.15,0,0,0,7-10.25Z" transform="translate(-76.36 -53.27)"/><path class="cls-9" d="M213.78,297.92a31,31,0,0,0-5.26,9.23c-2.78,7.82-2.68,18.19,1,19.42,3.34,1.1,10.59-1.89,11.09-2.54a23.83,23.83,0,0,0,4.94-14.52C222.56,306.71,216.81,300.72,213.78,297.92Z" transform="translate(-76.36 -53.27)"/><path class="cls-8" d="M220.65,324c13.21,16.88,19.3,20,22.29,18.75,3.85-1.59,3.89-10.89,1.53-17.27-4.23-11.46-16.85-15.4-18.88-16Q223.13,316.77,220.65,324Z" transform="translate(-76.36 -53.27)"/><path class="cls-7" d="M217.81,283.71a28.12,28.12,0,0,0-7,10.25c-3.2,8.33-4.25,15.48-1,16.23,2,.47,6.87.28,11.6-5.59a81.86,81.86,0,0,0,7-10.25Z" transform="translate(-76.36 -53.27)"/><path class="cls-6" d="M229.85,316.61c9.07,6.82,11.65,6.2,12.94,5.71,3.3-1.25,4.36-11.41-.85-18-3.62-4.59-12.75-7.94-14.82-8.36-2.85,3.46-4.73,7-7.58,10.43C221.55,307.87,226.07,313.77,229.85,316.61Z" transform="translate(-76.36 -53.27)"/><path class="cls-9" d="M216.6,265.38a31,31,0,0,0-5.26,9.23c-2.78,7.82-2.67,18.19,1,19.41,3.35,1.11,10.59-1.88,11.1-2.53A24,24,0,0,0,228.42,277C225.38,274.17,219.64,268.18,216.6,265.38Z" transform="translate(-76.36 -53.27)"/><path class="cls-7" d="M221.82,260.47c-2.09,1.82-5.62,3.75-8.27,7.51-4.26,6-5,14.27-1.87,14.89,1.93.39,8.78,1,13.34-4.2a72.46,72.46,0,0,0,6.81-9Z" transform="translate(-76.36 -53.27)"/><path class="cls-8" d="M222.75,291.94c13.21,16.88,19.3,20,22.29,18.75,3.85-1.59,3.89-10.89,1.53-17.27-4.23-11.46-16.85-15.4-18.88-16Q225.23,284.68,222.75,291.94Z" transform="translate(-76.36 -53.27)"/><path class="cls-9" d="M218,248.74a27.77,27.77,0,0,0-5.11,8.12c-2.74,6.85-2.75,15.9.78,16.93,3.18.93,10.12-1.75,10.61-2.33a20.14,20.14,0,0,0,4.87-12.72C226.25,256.33,220.84,251.15,218,248.74Z" transform="translate(-76.36 -53.27)"/><path class="cls-6" d="M232.43,288.55c8.58,5.85,11,5.29,12.28,4.84,3.15-1.13,4.28-10-.62-15.72-3.4-4-12.07-6.79-14-7.13-2.75,3-4.59,6.13-7.34,9.18C224.62,281,228.86,286.11,232.43,288.55Z" transform="translate(-76.36 -53.27)"/><path class="cls-8" d="M225.94,267.1c12.4,14.58,18.18,17.23,21,16.12,3.69-1.43,3.83-9.54,1.65-15.09-3.91-10-15.9-13.26-17.83-13.76Z" transform="translate(-76.36 -53.27)"/><path class="cls-7" d="M211.28,240.62a26,26,0,0,0-2.68,11.27c.05,8.17,4.84,13.2,8,12.51,2-.42,3-1.2,5.13-7.94a73.36,73.36,0,0,0,2.68-11.27Z" transform="translate(-76.36 -53.27)"/><path class="cls-6" d="M233.34,263.37c10.45,2,12.53.49,13.51-.43,2.49-2.35-.1-11.17-7-14.56-4.81-2.35-14.11-1.49-16.09-1-1.33,4-1.78,7.64-3.11,11.63C222.92,259.44,229,262.52,233.34,263.37Z" transform="translate(-76.36 -53.27)"/><path class="cls-9" d="M210.4,227.83a28.24,28.24,0,0,0-2.12,9.6c-.27,7.58,2.85,16.34,6.6,16.13,3.38-.19,9.14-5.16,9.41-5.88a20.78,20.78,0,0,0,.3-14C221,232.34,214,229.18,210.4,227.83Z" transform="translate(-76.36 -53.27)"/><path class="cls-8" d="M223.76,248.3c17,9.88,23.46,10.46,25.84,8.41,3.06-2.64.39-10.55-3.63-15.17-7.2-8.3-19.89-7.4-21.92-7.22Q223.92,241.31,223.76,248.3Z" transform="translate(-76.36 -53.27)"/><path class="cls-6" d="M225.81,238.09c11.39,3.35,14.2,2,15.58,1.22,3.51-2.08,3-11.39-4-15.7-4.85-3-15.73-3.26-18.14-3-2.64,3.91-4.18,7.57-6.82,11.48C215,232.8,221.07,236.69,225.81,238.09Z" transform="translate(-76.36 -53.27)"/><path class="cls-7" d="M210.08,212.6a26.26,26.26,0,0,0-4.7,10.58c-1.45,8,1.64,16.68,4.89,16.59,2-.05,3.84-3.45,7.2-9.68a73.1,73.1,0,0,0,4.7-10.59Z" transform="translate(-76.36 -53.27)"/><path class="cls-8" d="M212.76,218.69c15.73,11.78,22.09,13.11,24.69,11.35,3.35-2.27,1.61-10.43-1.84-15.49-6.19-9.08-18.9-9.65-20.93-9.72Z" transform="translate(-76.36 -53.27)"/><path class="cls-9" d="M205.45,196.8a28.29,28.29,0,0,0-3.22,9.29c-1.15,7.49.93,16.56,4.68,16.79,3.38.2,9.68-4.07,10-4.75a20.77,20.77,0,0,0,1.92-13.86C215.45,202.51,208.86,198.56,205.45,196.8Z" transform="translate(-76.36 -53.27)"/><path class="cls-6" d="M219.86,212.42c9.9,3.91,12.22,2.78,13.35,2.05,2.88-1.84,2-11-4.24-15.6-4.3-3.19-13.59-4.06-15.63-3.94-2,3.68-3.16,7.18-5.2,10.86C210.34,206.65,215.74,210.79,219.86,212.42Z" transform="translate(-76.36 -53.27)"/><path class="cls-7" d="M205.76,186.32a26,26,0,0,0-4.7,10.59c-1.45,8,1.63,16.67,4.88,16.58,2-.05,3.85-3.45,7.21-9.68a75.4,75.4,0,0,0,4.7-10.59Z" transform="translate(-76.36 -53.27)"/><path class="cls-8" d="M208.44,192.41c15.73,11.79,22.09,13.12,24.69,11.35,3.35-2.26,1.61-10.42-1.84-15.48-6.19-9.09-18.9-9.66-20.93-9.73Z" transform="translate(-76.36 -53.27)"/><path class="cls-9" d="M201.13,170.52a28.27,28.27,0,0,0-3.23,9.29c-1.14,7.5.93,16.56,4.69,16.79,3.38.21,9.67-4.06,10-4.75A20.74,20.74,0,0,0,214.53,178C211.12,176.23,204.54,172.28,201.13,170.52Z" transform="translate(-76.36 -53.27)"/><path class="cls-6" d="M215.08,184.44c8.85,5.52,11.28,4.84,12.5,4.34,3.1-1.27,3.82-10.26-1.34-15.8-3.58-3.84-12.39-6.31-14.37-6.56-2.61,3.19-4.31,6.37-6.92,9.56C206.91,177.2,211.39,182.15,215.08,184.44Z" transform="translate(-76.36 -53.27)"/><path class="cls-7" d="M206.08,156.78a25.59,25.59,0,0,0-6.39,9.39c-2.81,7.49-1.36,16.37,1.79,16.86,2,.3,4.31-2.66,8.64-8.07a74.29,74.29,0,0,0,6.4-9.38Z" transform="translate(-76.36 -53.27)"/><path class="cls-8" d="M207.59,163.13c13.08,14.14,19,16.55,21.8,15.31,3.62-1.6,3.38-9.78,1-15.27-4.37-9.85-16.52-12.65-18.47-13.07Q209.74,156.63,207.59,163.13Z" transform="translate(-76.36 -53.27)"/><path class="cls-9" d="M204.39,140.73a27.64,27.64,0,0,0-4.74,8.39c-2.42,7-2,16.14,1.56,17,3.22.79,10-2.22,10.5-2.81a20.4,20.4,0,0,0,4.29-13C213,148,207.37,143,204.39,140.73Z" transform="translate(-76.36 -53.27)"/><path class="cls-6" d="M215.32,155.71c6.27,6.85,8.57,6.91,9.76,6.82,3-.26,6-7.5,2.95-13.41-2.12-4.1-9.14-8.41-10.81-9.14-3.1,2-5.41,4.16-8.52,6.12C210.1,147.61,212.71,152.86,215.32,155.71Z" transform="translate(-76.36 -53.27)"/><path class="cls-7" d="M214.69,130.52a22.77,22.77,0,0,0-8,6.11c-4.4,5.47-5.45,13.18-2.84,14.4,1.62.75,4.45-1.08,9.64-4.44a64.18,64.18,0,0,0,8-6.1Z" transform="translate(-76.36 -53.27)"/><path class="cls-8" d="M214.36,136.16c7.71,15.07,12.22,18.58,15,18.28,3.58-.38,5.5-7.2,4.81-12.37-1.24-9.27-11.09-14.72-12.68-15.57Z" transform="translate(-76.36 -53.27)"/><path class="cls-9" d="M217.41,116.82a24.21,24.21,0,0,0-6.32,5.71c-3.94,5.19-6,12.82-3.08,14.47,2.6,1.49,9.33.76,9.89.39a17.28,17.28,0,0,0,7.12-9.66C223,125.06,219.4,119.49,217.41,116.82Z" transform="translate(-76.36 -53.27)"/><path class="cls-6" d="M222.15,132.4c4.14,7.1,6.1,7.55,7.14,7.66,2.64.28,6.49-5.61,4.94-11.34-1.08-4-6.32-9-7.61-9.88-3,1.22-5.39,2.76-8.4,4C219.14,124.38,220.43,129.45,222.15,132.4Z" transform="translate(-76.36 -53.27)"/><path class="cls-7" d="M226.16,110.07a20.07,20.07,0,0,0-8,4c-4.75,4.09-7,10.72-5,12.23,1.25.94,4-.2,9.05-2.29a57.14,57.14,0,0,0,8-4Z" transform="translate(-76.36 -53.27)"/><path class="cls-8" d="M224.25,115.39c3.89,14.59,7.12,18.45,9.55,18.65,3.13.26,6-5.44,6.34-10.11.62-8.39-6.84-14.85-8-15.87Z" transform="translate(-76.36 -53.27)"/><path class="cls-9" d="M230.35,98.83a21.67,21.67,0,0,0-6.44,4c-4.31,3.91-7.42,10.31-5.24,12.26,2,1.75,7.84,2.23,8.39,2a15.81,15.81,0,0,0,7.84-7.33C233.68,107,231.57,101.52,230.35,98.83Z" transform="translate(-76.36 -53.27)"/><path class="cls-6" d="M231.41,112.19c1.85,6.89,3.39,7.74,4.24,8.08,2.16.88,6.74-3.08,6.74-8.21,0-3.56-3.25-9-4.13-10-2.81.28-5.15,1-8,1.26C230.71,104.81,230.64,109.33,231.41,112.19Z" transform="translate(-76.36 -53.27)"/><path class="cls-7" d="M239.88,94.63a17.49,17.49,0,0,0-7.62,1.42c-4.93,2.25-8.37,7.2-7,8.94.83,1.08,3.41.8,8.12.28a49.59,49.59,0,0,0,7.62-1.42Z" transform="translate(-76.36 -53.27)"/><path class="cls-8" d="M237.06,98.58c-.07,13,1.76,17,3.76,17.79,2.57,1,6.29-3.06,7.64-6.86,2.44-6.81-2.35-14-3.13-15.11Z" transform="translate(-76.36 -53.27)"/><path class="cls-9" d="M246,86.32a18.81,18.81,0,0,0-6.32,1.74c-4.51,2.21-8.59,6.76-7.2,8.9,1.24,1.93,6.08,3.76,6.59,3.69a13.5,13.5,0,0,0,8.27-4.18C246.89,93.94,246.39,88.85,246,86.32Z" transform="translate(-76.36 -53.27)"/><path class="cls-6" d="M242.21,97.47c.25,5.63,1.29,6.54,1.89,6.94,1.51,1,5.73-1.29,6.62-5.26.62-2.75-1-7.47-1.46-8.44-2.22-.25-4.15-.08-6.37-.32C243,91.64,242.11,95.12,242.21,97.47Z" transform="translate(-76.36 -53.27)"/><path class="cls-7" d="M251.78,85.25a13.73,13.73,0,0,0-6.13-.14c-4.19.94-7.7,4.21-7,5.78.46,1,2.5,1.17,6.23,1.54a39.08,39.08,0,0,0,6.13.13Z" transform="translate(-76.36 -53.27)"/><path class="cls-8" d="M248.92,87.85c-2.3,10.09-1.57,13.47-.16,14.38,1.81,1.17,5.38-1.35,7.08-4.07,3.06-4.88.6-11.2.19-12.21Z" transform="translate(-76.36 -53.27)"/><path class="cls-9" d="M257.92,79.8a14.9,14.9,0,0,0-5.18.33c-3.87,1-7.8,3.84-7.1,5.72.63,1.69,4.05,3.89,4.46,3.92a10.76,10.76,0,0,0,7.1-1.89C257.32,85.85,257.81,81.83,257.92,79.8Z" transform="translate(-76.36 -53.27)"/><path class="cls-6" d="M252.73,87.88c-.33,5.17.48,6.29,1,6.83,1.2,1.36,5,.46,6.18-2.88.79-2.32-.12-7-.45-8.07-1.87-.85-3.55-1.25-5.42-2.1C253.92,82.8,252.87,85.72,252.73,87.88Z" transform="translate(-76.36 -53.27)"/><path class="cls-7" d="M262.1,79.53a13,13,0,0,0-5.24-1.87c-3.68-.34-7,1.62-6.52,3.25.31,1,2,1.78,5.19,3.18A37.85,37.85,0,0,0,260.77,86Z" transform="translate(-76.36 -53.27)"/><path class="cls-8" d="M259.4,81.08c-2.94,8.48-2.64,11.75-1.52,13,1.45,1.58,4.75.32,6.47-1.66,3.08-3.55,1.58-10,1.32-11Z" transform="translate(-76.36 -53.27)"/><path class="cls-9" d="M267.88,76.35a13.3,13.3,0,0,0-4.47-1.18c-3.4-.22-7.05,1.25-6.63,3.15.38,1.72,3.1,4.69,3.44,4.84a8.24,8.24,0,0,0,6.27.31C266.79,81.66,267.59,78.16,267.88,76.35Z" transform="translate(-76.36 -53.27)"/><path class="cls-6" d="M263,82.39c-.33,5.18.48,6.29.95,6.83,1.19,1.36,5,.46,6.18-2.88.79-2.32-.12-7-.45-8.07-1.87-.85-3.55-1.25-5.43-2.1C264.2,77.32,263.14,80.24,263,82.39Z" transform="translate(-76.36 -53.27)"/><path class="cls-7" d="M272.38,74.05a12.86,12.86,0,0,0-5.24-1.87c-3.68-.35-7,1.61-6.52,3.25.3,1,2,1.77,5.19,3.17a36.13,36.13,0,0,0,5.24,1.87Z" transform="translate(-76.36 -53.27)"/><path class="cls-8" d="M269.68,75.59c-2.94,8.49-2.64,11.76-1.52,13,1.45,1.58,4.74.32,6.46-1.66,3.09-3.55,1.58-10,1.33-11Z" transform="translate(-76.36 -53.27)"/><path class="cls-9" d="M278.16,70.87a13.12,13.12,0,0,0-4.47-1.19c-3.41-.22-7.05,1.25-6.63,3.16.37,1.71,3.09,4.68,3.44,4.83a8.24,8.24,0,0,0,6.27.31C277.06,76.18,277.87,72.67,278.16,70.87Z" transform="translate(-76.36 -53.27)"/><path class="cls-6" d="M273.92,78.74c-2.21,3.66-1.88,4.6-1.64,5.07.59,1.18,4.44,1.19,6.72-1a24.68,24.68,0,0,0,4.17-7.2c-1.4-.94-4.38-2.39-5.79-3.32C276.9,73.09,274.84,77.22,273.92,78.74Z" transform="translate(-76.36 -53.27)"/><path class="cls-7" d="M286.52,71.23A10.68,10.68,0,0,0,282.41,69c-3.24-.88-7,0-7.16,1.22-.1.78.39,2.4,2.77,3.94,1.67,1.08,3.94,1,4.92,1.46Z" transform="translate(-76.36 -53.27)"/><path class="cls-9" d="M293,69.93a11.73,11.73,0,0,0-3.66-1.61c-3-.74-6.92-.31-7.24,1.13s1.11,3.89,1.38,4.06a9,9,0,0,0,5.62,1.29C290,73.56,292.06,71.18,293,69.93Z" transform="translate(-76.36 -53.27)"/><path class="cls-8" d="M283.06,72.64c-5.82,5.59-6.75,8-6.18,9.06.74,1.38,4.23,1,6.53-.09,4.13-2,5.13-6.89,5.27-7.67Z" transform="translate(-76.36 -53.27)"/><path class="cls-6" d="M287.19,73.51c-3,1.74-2.8,4.31-2.74,4.68.15.94,3.24.16,5.86-.63a9.31,9.31,0,0,0,4-3.07c-.92-1-1.93-1.76-2.85-2.76C290.76,72.12,288.44,72.78,287.19,73.51Z" transform="translate(-76.36 -53.27)"/><path class="cls-7" d="M298.06,72.85a9.08,9.08,0,0,0-2.84-2.61c-2.51-1.48-6-2-6.5-1.23-.32.48.54,1.39,2.11,3.06a28,28,0,0,0,2.84,2.6Z" transform="translate(-76.36 -53.27)"/><path class="cls-9" d="M304.84,74.17a10.93,10.93,0,0,0-2.65-2.08c-2.37-1.33-5.82-2.14-6.53-1.3s-.22,2.83-.05,3A9.44,9.44,0,0,0,300,76.22C301.21,75.68,303.66,74.71,304.84,74.17Z" transform="translate(-76.36 -53.27)"/><path class="cls-8" d="M297.14,72.75c-6.67,2-8.19,3.27-8,4.12.22,1.1,3.31,1.86,5.62,1.78a9.24,9.24,0,0,0,6.82-3.48Z" transform="translate(-76.36 -53.27)"/><path class="cls-6" d="M399.65,650.74c-3,1.55-3.8,1.26-4.18,1.06-1-.51-.89-3.5,1-5.17,1.28-1.16,4.2-1.72,4.85-1.74.74,1.13,1.18,2.23,1.91,3.36C402.52,648.59,400.91,650.09,399.65,650.74Z" transform="translate(-76.36 -53.27)"/><path class="cls-7" d="M404.6,641.77a8.43,8.43,0,0,1,1.75,3.29c.66,2.55-.11,5.44-1.14,5.5-.64.05-1.3-1-2.52-2.91a24.83,24.83,0,0,1-1.75-3.28Z" transform="translate(-76.36 -53.27)"/><path class="cls-8" d="M403.21,643.2c-4.69,4.27-6.67,4.89-7.54,4.4-1.11-.63-.77-3.32.2-5.06,1.74-3.12,5.74-3.68,6.39-3.76Z" transform="translate(-76.36 -53.27)"/><path class="cls-9" d="M406.32,636a9.22,9.22,0,0,1,1.25,2.91c.54,2.39.11,5.38-1.07,5.57a6.09,6.09,0,0,1-3.29-1.24,6.7,6.7,0,0,1-.95-4.42C403.29,638.11,405.28,636.63,406.32,636Z" transform="translate(-76.36 -53.27)"/><path class="cls-6" d="M400.58,640.37c-4.31,2.14-5.39,1.72-5.93,1.43-1.37-.72-1.31-4.86,1.31-7.17,1.81-1.6,6-2.34,6.88-2.37,1.06,1.58,1.7,3.11,2.75,4.69C404.64,637.42,402.37,639.48,400.58,640.37Z" transform="translate(-76.36 -53.27)"/><path class="cls-7" d="M407.53,628a11.88,11.88,0,0,1,2.52,4.58c1,3.56-.09,7.56-1.56,7.64-.91,0-1.86-1.41-3.62-4.08a33.85,33.85,0,0,1-2.52-4.58Z" transform="translate(-76.36 -53.27)"/><path class="cls-8" d="M405.56,629.94c-6.62,5.89-9.43,6.73-10.67,6-1.59-.89-1.13-4.63.23-7,2.44-4.32,8.13-5.06,9.05-5.17Z" transform="translate(-76.36 -53.27)"/><path class="cls-9" d="M409.91,619.91a12.6,12.6,0,0,1,1.81,4.06c.8,3.32.22,7.47-1.46,7.72-1.51.22-4.51-1.46-4.7-1.75a9.36,9.36,0,0,1-1.39-6.16C405.63,622.86,408.44,620.84,409.91,619.91Z" transform="translate(-76.36 -53.27)"/><path class="cls-6" d="M402,626.54c-4.67,2.3-5.86,1.84-6.44,1.54-1.49-.78-1.43-5.27,1.41-7.76,2-1.72,6.47-2.51,7.47-2.54,1.16,1.7,1.86,3.36,3,5.07C406.44,623.35,404,625.58,402,626.54Z" transform="translate(-76.36 -53.27)"/><path class="cls-7" d="M409.56,613.15a12.65,12.65,0,0,1,2.75,5c1.06,3.85-.08,8.17-1.68,8.26-1,0-2-1.53-3.93-4.42a36.81,36.81,0,0,1-2.76-5Z" transform="translate(-76.36 -53.27)"/><path class="cls-8" d="M407.43,615.27c-7.19,6.36-10.24,7.26-11.59,6.51-1.73-1-1.23-5,.24-7.6,2.64-4.66,8.83-5.46,9.82-5.57Z" transform="translate(-76.36 -53.27)"/><path class="cls-9" d="M412.14,604.44a13.62,13.62,0,0,1,2,4.39c.88,3.59.26,8.08-1.57,8.34-1.64.24-4.91-1.58-5.11-1.9a10.15,10.15,0,0,1-1.53-6.66C407.49,607.62,410.55,605.44,412.14,604.44Z" transform="translate(-76.36 -53.27)"/><path class="cls-6" d="M403.1,612c-5.25,2.78-6.56,2.27-7.2,1.92-1.64-.89-1.49-6.15,1.71-9.12,2.22-2.06,7.25-3.07,8.37-3.12,1.25,2,2,3.91,3.25,5.89C408.06,608.21,405.28,610.87,403.1,612Z" transform="translate(-76.36 -53.27)"/><path class="cls-7" d="M411.72,596.18a14.53,14.53,0,0,1,3,5.76c1.1,4.5-.24,9.59-2,9.72-1.1.08-2.23-1.75-4.3-5.11a41.19,41.19,0,0,1-3-5.76Z" transform="translate(-76.36 -53.27)"/><path class="cls-8" d="M409.31,598.71c-8.12,7.59-11.53,8.7-13,7.85-1.91-1.11-1.28-5.85.41-8.92,3-5.52,9.92-6.56,11-6.71C408.26,593.52,408.78,596.12,409.31,598.71Z" transform="translate(-76.36 -53.27)"/><path class="cls-9" d="M414.75,585.93a16.11,16.11,0,0,1,2.11,5.1c.92,4.2.14,9.48-1.9,9.82-1.83.31-5.43-1.77-5.65-2.14a12.13,12.13,0,0,1-1.58-7.78C409.52,589.74,413,587.12,414.75,585.93Z" transform="translate(-76.36 -53.27)"/><path class="cls-6" d="M404.22,594.09c-5.75,2.72-7.22,2.16-7.94,1.79-1.85-1-1.81-6.35,1.66-9.31,2.41-2.06,8-3,9.21-3,1.44,2.06,2.31,4.06,3.75,6.12C409.63,590.3,406.61,593,404.22,594.09Z" transform="translate(-76.36 -53.27)"/><path class="cls-7" d="M413.38,578.06a15.37,15.37,0,0,1,3.44,6c1.34,4.64,0,9.82-2,9.91-1.22.06-2.52-1.85-4.9-5.34a43.16,43.16,0,0,1-3.45-6Z" transform="translate(-76.36 -53.27)"/><path class="cls-8" d="M410.77,580.59c-8.81,7.58-12.57,8.63-14.24,7.72-2.15-1.18-1.57-6,.22-9.14,3.21-5.58,10.85-6.48,12.07-6.6Z" transform="translate(-76.36 -53.27)"/><path class="cls-9" d="M416.48,567.61A16.76,16.76,0,0,1,419,572.9c1.12,4.33.39,9.73-1.87,10-2,.27-6.07-1.95-6.32-2.33a12,12,0,0,1-1.95-8C410.78,571.39,414.52,568.79,416.48,567.61Z" transform="translate(-76.36 -53.27)"/><path class="cls-6" d="M405.26,575.05c-6.4,2.43-8.09,1.82-8.93,1.41-2.13-1-2.33-6.35,1.48-9.12,2.64-1.93,8.9-2.58,10.31-2.55,1.72,2.1,2.8,4.12,4.53,6.22C411.23,571.54,407.92,574,405.26,575.05Z" transform="translate(-76.36 -53.27)"/><path class="cls-7" d="M414.94,559.61a16.82,16.82,0,0,1,4.17,6.07c1.72,4.64.4,9.7-1.82,9.7-1.38,0-2.94-1.94-5.8-5.5a48.55,48.55,0,0,1-4.17-6.06Z" transform="translate(-76.36 -53.27)"/><path class="cls-8" d="M412.09,562c-9.65,7.09-13.87,8-15.81,7-2.49-1.26-2-6-.15-9,3.4-5.38,12-5.92,13.4-6C410.38,556.66,411.24,559.33,412.09,562Z" transform="translate(-76.36 -53.27)"/><path class="cls-9" d="M418,549.43a17.51,17.51,0,0,1,3,5.34c1.46,4.33.87,9.62-1.67,9.81-2.29.18-7-2.19-7.28-2.58a11.28,11.28,0,0,1-2.56-8C411.69,552.91,415.83,550.51,418,549.43Z" transform="translate(-76.36 -53.27)"/><path class="cls-6" d="M404.93,558.35c-7.87,3.26-9.92,2.5-10.93,2-2.59-1.28-2.73-8.13,2-11.78,3.27-2.54,10.94-3.51,12.65-3.5,2.06,2.68,3.35,5.25,5.41,7.92C412.3,553.71,408.2,557,404.93,558.35Z" transform="translate(-76.36 -53.27)"/><path class="cls-7" d="M417.07,538.27a20.91,20.91,0,0,1,5,7.73c2,5.94.29,12.49-2.43,12.54-1.68,0-3.55-2.44-7-7a59.94,59.94,0,0,1-5-7.73Z" transform="translate(-76.36 -53.27)"/><path class="cls-8" d="M413.55,541.4c-11.95,9.33-17.12,10.55-19.47,9.33-3-1.58-2.37-7.72,0-11.62,4.26-7,14.8-7.86,16.49-8Q412.06,536.26,413.55,541.4Z" transform="translate(-76.36 -53.27)"/><path class="cls-9" d="M421,525.09a22,22,0,0,1,3.61,6.81c1.7,5.55.87,12.38-2.24,12.68-2.79.28-8.47-2.69-8.83-3.18a14.74,14.74,0,0,1-3-10.27C413.24,529.7,418.34,526.52,421,525.09Z" transform="translate(-76.36 -53.27)"/><path class="cls-6" d="M405.42,534.63c-8.33,3.6-10.48,2.79-11.55,2.26-2.72-1.36-2.8-8.79,2.2-12.78,3.47-2.77,11.56-3.89,13.36-3.89,2.16,2.88,3.49,5.65,5.64,8.53C413.23,529.54,408.88,533.13,405.42,534.63Z" transform="translate(-76.36 -53.27)"/><path class="cls-7" d="M418.4,512.77c1.69,1.78,6.29,5.2,7.48,8.91,2.06,6.42-2.1,13-5,13-1.78,0-3.73-2.61-7.29-7.48a62.77,62.77,0,0,1-5.18-8.33Z" transform="translate(-76.36 -53.27)"/><path class="cls-8" d="M414.65,516.19c-12.68,10.22-18.14,11.58-20.6,10.28-3.17-1.68-2.45-8.34.09-12.58,4.55-7.61,15.68-8.65,17.46-8.79Q413.13,510.65,414.65,516.19Z" transform="translate(-76.36 -53.27)"/><path class="cls-9" d="M422.66,498.47a23.37,23.37,0,0,1,3.75,7.35c1.74,6,.81,13.4-2.47,13.75-2.95.32-8.91-2.84-9.29-3.38a16.1,16.1,0,0,1-3-11.09C414.43,503.53,419.83,500,422.66,498.47Z" transform="translate(-76.36 -53.27)"/><path class="cls-6" d="M405.44,511c-8.61,3.56-10.85,2.73-12,2.18-2.83-1.39-3-8.89,2.17-12.87,3.57-2.77,12-3.83,13.83-3.82,2.26,2.93,3.66,5.74,5.92,8.66C413.5,505.88,409,509.47,405.44,511Z" transform="translate(-76.36 -53.27)"/><path class="cls-7" d="M422.68,489.55c1.77,1.81,2.4,3.87,3.67,7.62,2.19,6.49-1.86,13.94-4.84,14-1.84,0-3.89-2.67-7.63-7.62a65.56,65.56,0,0,1-5.44-8.44C411.86,493.07,419.26,491.58,422.68,489.55Z" transform="translate(-76.36 -53.27)"/><path class="cls-8" d="M414.86,492.43c-13.06,10.2-18.72,11.52-21.29,10.19-3.3-1.72-2.6-8.44,0-12.69,4.66-7.64,16.19-8.59,18-8.72Q413.24,486.82,414.86,492.43Z" transform="translate(-76.36 -53.27)"/><path class="cls-9" d="M423,474.61a23.84,23.84,0,0,1,4,7.45c1.86,6.06,1,13.52-2.44,13.85-3.06.3-9.27-2.94-9.67-3.48a16.1,16.1,0,0,1-3.26-11.22C414.52,479.64,420.1,476.17,423,474.61Z" transform="translate(-76.36 -53.27)"/><path class="cls-6" d="M406.52,489.35c-9.06,3.24-11.47,2.37-12.67,1.81-3.05-1.44-4.51-12.07.86-15.81,3.73-2.6,11.51-6.6,13.5-6.54,2.49,2.91,6.27,12.2,8.75,15.11C415,484.63,410.29,488,406.52,489.35Z" transform="translate(-76.36 -53.27)"/><path class="cls-7" d="M419.53,465.35a27.41,27.41,0,0,1,7.26,8.39c3.18,6.29,1.5,12.87-2.09,12.68-2.23-.12-8.17-2-13.09-6.94-3.46-3.48-2.56-7.27-4-9.23Z" transform="translate(-76.36 -53.27)"/><path class="cls-8" d="M416.63,468.06c-13.63,9.59-19.62,10.73-22.38,9.36-3.56-1.77-3-8.3-.35-12.37,4.75-7.32,17-7.94,19-8Q414.74,462.54,416.63,468.06Z" transform="translate(-76.36 -53.27)"/><path class="cls-9" d="M422,450.69a24.44,24.44,0,0,1,4.6,7.24c2.3,5.91,1.72,13.17-1.88,13.5-3.24.29-10-2.86-10.47-3.39-3.89-4.56-4.29-9.27-4.06-10.92C413.26,455.59,419,452.21,422,450.69Z" transform="translate(-76.36 -53.27)"/><path class="cls-6" d="M408.51,464c-8.89,5-11.16,4.18-12.29,3.61-2.86-1.46-2.84-10.48,2.52-15.71,3.72-3.63,12.33-5.58,14.25-5.72,2.24,3.34,3.61,6.62,5.86,10C416.88,457.21,412.21,461.89,408.51,464Z" transform="translate(-76.36 -53.27)"/><path class="cls-7" d="M418.45,436.52a29.31,29.31,0,0,1,7.81,9.83c3.39,7.54,1.49,15.78-2.42,15.81-2.42,0-7.61-1.79-12.91-7.55-3.72-4.05-3.95-8.87-5.51-11.19Z" transform="translate(-76.36 -53.27)"/><path class="cls-8" d="M417.05,442.84c-13.6,13.37-19.42,15.43-22,14-3.34-1.8-2.47-10,.28-15.31,4.95-9.58,16.77-11.67,18.67-12Q415.51,436.21,417.05,442.84Z" transform="translate(-76.36 -53.27)"/><path class="cls-9" d="M423.26,418.82a27.7,27.7,0,0,1,3.88,8.66c1.76,7.16.66,16.24-2.83,16.92-3.13.6-9.42-2.8-9.81-3.43a20.87,20.87,0,0,1-3.08-13.27C414.45,425.58,420.24,420.94,423.26,418.82Z" transform="translate(-76.36 -53.27)"/><path class="cls-6" d="M405.3,437.91c-8.89,5-11.17,4.18-12.3,3.61-2.86-1.46-2.84-10.48,2.52-15.71,3.72-3.63,12.33-5.58,14.25-5.72,2.24,3.34,3.61,6.62,5.86,10C413.66,431.15,409,435.84,405.3,437.91Z" transform="translate(-76.36 -53.27)"/><path class="cls-7" d="M420.81,407.43a25.07,25.07,0,0,1,5.38,9.75c2.09,7.66,0,16.44-3,16.74-1.89.19-8.49-2.59-12.2-8.25-2.61-4-2.45-7.75-3.5-10.07C411,412.88,417.26,410.16,420.81,407.43Z" transform="translate(-76.36 -53.27)"/><path class="cls-8" d="M415.36,414.81c-13.6,13.36-19.42,15.42-22,14-3.34-1.81-2.47-10,.29-15.31,4.94-9.59,16.76-11.67,18.66-12Q413.82,408.17,415.36,414.81Z" transform="translate(-76.36 -53.27)"/><path class="cls-9" d="M424.13,392.66a27.49,27.49,0,0,1,3.87,8.66c1.76,7.16.67,16.24-2.82,16.91-3.14.61-9.42-2.8-9.82-3.42a20.85,20.85,0,0,1-3.07-13.27C415.31,399.42,421.1,394.78,424.13,392.66Z" transform="translate(-76.36 -53.27)"/><path class="cls-7" d="M418.45,377.82a26.58,26.58,0,0,1,6.37,9.76c2.92,8,1.86,17.8-1.09,18.59-1.83.49-4.17-2.55-8.45-8.12a76.55,76.55,0,0,1-6.38-9.75Q413.67,383.07,418.45,377.82Z" transform="translate(-76.36 -53.27)"/><path class="cls-6" d="M409.61,407.26c-7.36,7.63-9.73,7.35-10.95,7-3.08-.81-5.16-10.41-1.24-17.37,2.73-4.83,10.52-9.14,12.33-9.79,2.93,3,5,6.11,7.94,9.08C416.05,397.89,412.67,404.09,409.61,407.26Z" transform="translate(-76.36 -53.27)"/><path class="cls-8" d="M415,383.24c-11.85,16.54-17.33,19.65-20,18.52-3.48-1.45-3.54-10.42-1.44-16.63,3.77-11.14,15.15-15.18,17-15.8Q412.75,376.29,415,383.24Z" transform="translate(-76.36 -53.27)"/><path class="cls-9" d="M420.18,358.22a30,30,0,0,1,4.54,8.92c2.34,7.56,2,17.56-1.35,18.73-3,1.05-9.52-1.86-10-2.49a23.87,23.87,0,0,1-4.15-14C412.06,366.67,417.38,360.91,420.18,358.22Z" transform="translate(-76.36 -53.27)"/><path class="cls-7" d="M416.84,344.5a26.4,26.4,0,0,1,6.12,9.91c2.71,8,1.4,17.85-1.57,18.57-1.85.44-4.11-2.66-8.24-8.35a76,76,0,0,1-6.12-9.91Z" transform="translate(-76.36 -53.27)"/><path class="cls-6" d="M405.27,376.18c-8.33,6.54-10.65,5.94-11.8,5.46-3-1.22-3.69-11,1.16-17.38,3.36-4.4,11.67-7.61,13.55-8,2.49,3.34,4.12,6.73,6.61,10.08C413,367.79,408.74,373.46,405.27,376.18Z" transform="translate(-76.36 -53.27)"/><path class="cls-9" d="M418.32,326.83a29.68,29.68,0,0,1,4.55,8.92c2.34,7.55,2,17.55-1.35,18.72-3,1-9.52-1.86-10-2.49a23.87,23.87,0,0,1-4.15-14C410.21,335.27,415.52,329.51,418.32,326.83Z" transform="translate(-76.36 -53.27)"/><path class="cls-8" d="M412.2,352.42c-12.28,16.23-17.84,19.19-20.51,18-3.44-1.54-3.28-10.51-1-16.66,4.06-11,15.54-14.78,17.38-15.35Z" transform="translate(-76.36 -53.27)"/><path class="cls-6" d="M406,348.86c-10.05,6.83-12.53,5.9-13.75,5.22-3.1-1.72-2.7-13.28,3.46-20.24,4.28-4.83,13.88-7.76,16-8,2.34,4.16,3.71,8.29,6.05,12.46C415.51,339.79,410.15,346,406,348.86Z" transform="translate(-76.36 -53.27)"/><path class="cls-7" d="M416,317.35a28.11,28.11,0,0,1,7,10.25c3.2,8.34,2,18.5-1.28,19.25-2,.47-4.62-2.74-9.34-8.61a80.06,80.06,0,0,1-7-10.25Z" transform="translate(-76.36 -53.27)"/><path class="cls-9" d="M419.07,296.77a31.22,31.22,0,0,1,5.25,9.23c2.78,7.82,2.68,18.19-1,19.42-3.34,1.1-10.59-1.88-11.09-2.54a23.89,23.89,0,0,1-4.94-14.51C410.28,305.57,416,299.57,419.07,296.77Z" transform="translate(-76.36 -53.27)"/><path class="cls-8" d="M412.19,322.88c-13.21,16.88-19.3,20-22.29,18.75-3.85-1.59-3.89-10.88-1.53-17.27,4.23-11.46,16.85-15.4,18.88-16Q409.71,315.63,412.19,322.88Z" transform="translate(-76.36 -53.27)"/><path class="cls-7" d="M415,282.56a28.12,28.12,0,0,1,7,10.25c3.2,8.34,4.25,15.48,1,16.23-2,.47-6.87.28-11.59-5.59a80.34,80.34,0,0,1-7-10.25Z" transform="translate(-76.36 -53.27)"/><path class="cls-6" d="M403,315.46c-9.07,6.82-11.65,6.2-12.94,5.71-3.29-1.25-4.36-11.41.85-18,3.62-4.58,12.75-7.94,14.82-8.35,2.85,3.45,4.74,7,7.58,10.42C411.29,306.72,406.77,312.62,403,315.46Z" transform="translate(-76.36 -53.27)"/><path class="cls-9" d="M416.24,264.23a31,31,0,0,1,5.26,9.23c2.78,7.82,2.67,18.19-1,19.42-3.35,1.1-10.59-1.89-11.1-2.54a24,24,0,0,1-4.94-14.52C407.46,273,413.2,267,416.24,264.23Z" transform="translate(-76.36 -53.27)"/><path class="cls-7" d="M411,259.33c2.09,1.81,5.62,3.75,8.27,7.5,4.26,6.06,5,14.27,1.87,14.89-1.93.39-8.77,1-13.34-4.2a72.5,72.5,0,0,1-6.81-9Z" transform="translate(-76.36 -53.27)"/><path class="cls-8" d="M410.09,290.8c-13.21,16.87-19.3,20-22.29,18.74-3.85-1.59-3.89-10.88-1.53-17.27,4.23-11.46,16.85-15.4,18.88-16Q407.61,283.54,410.09,290.8Z" transform="translate(-76.36 -53.27)"/><path class="cls-9" d="M414.87,247.6a27.57,27.57,0,0,1,5.11,8.11c2.74,6.86,2.75,15.9-.78,16.93-3.18.93-10.12-1.75-10.61-2.33a20.2,20.2,0,0,1-4.87-12.72C406.59,255.18,412,250,414.87,247.6Z" transform="translate(-76.36 -53.27)"/><path class="cls-6" d="M400.41,287.4c-8.58,5.85-11,5.29-12.28,4.85-3.15-1.13-4.28-10,.62-15.72,3.4-4,12.07-6.8,14-7.13,2.75,3,4.59,6.13,7.34,9.18C408.22,279.86,404,285,400.41,287.4Z" transform="translate(-76.36 -53.27)"/><path class="cls-8" d="M406.91,266c-12.41,14.59-18.19,17.23-21.05,16.12-3.69-1.43-3.83-9.54-1.65-15.09,3.91-10,15.9-13.26,17.83-13.76Q404.47,259.6,406.91,266Z" transform="translate(-76.36 -53.27)"/><path class="cls-7" d="M421.56,239.47a26.08,26.08,0,0,1,2.68,11.27c-.05,8.17-4.84,13.2-8,12.52-2-.43-3-1.21-5.13-7.95A74.57,74.57,0,0,1,408.41,244Z" transform="translate(-76.36 -53.27)"/><path class="cls-6" d="M399.5,262.22c-10.45,2-12.53.49-13.51-.43-2.49-2.35.1-11.17,7-14.56,4.81-2.35,14.11-1.49,16.09-1,1.33,4,1.78,7.64,3.11,11.64C409.92,258.3,403.85,261.38,399.5,262.22Z" transform="translate(-76.36 -53.27)"/><path class="cls-9" d="M422.44,226.68a28.29,28.29,0,0,1,2.12,9.6c.27,7.58-2.85,16.34-6.6,16.13-3.38-.19-9.14-5.16-9.41-5.88a20.78,20.78,0,0,1-.3-14C411.85,231.19,418.85,228,422.44,226.68Z" transform="translate(-76.36 -53.27)"/><path class="cls-8" d="M409.08,247.15c-17,9.88-23.46,10.46-25.84,8.41-3.06-2.64-.39-10.54,3.63-15.17,7.2-8.3,19.89-7.39,21.92-7.22Q408.92,240.16,409.08,247.15Z" transform="translate(-76.36 -53.27)"/><path class="cls-6" d="M407,236.94c-11.39,3.35-14.2,2.05-15.58,1.23-3.51-2.09-3-11.4,4-15.71,4.85-3,15.73-3.26,18.14-3,2.64,3.9,4.19,7.57,6.83,11.47C417.85,231.66,411.77,235.54,407,236.94Z" transform="translate(-76.36 -53.27)"/><path class="cls-7" d="M422.76,211.45a26.11,26.11,0,0,1,4.7,10.59c1.45,8-1.63,16.67-4.89,16.58-2-.05-3.84-3.45-7.2-9.68a73.1,73.1,0,0,1-4.7-10.59Z" transform="translate(-76.36 -53.27)"/><path class="cls-8" d="M420.08,217.54c-15.73,11.78-22.09,13.12-24.69,11.35-3.35-2.26-1.61-10.42,1.84-15.49,6.19-9.08,18.9-9.65,20.93-9.72Z" transform="translate(-76.36 -53.27)"/><path class="cls-9" d="M427.39,195.65a28.29,28.29,0,0,1,3.22,9.29c1.15,7.5-.92,16.56-4.68,16.79-3.38.2-9.68-4.07-10-4.75A20.83,20.83,0,0,1,414,203.12C417.39,201.36,424,197.41,427.39,195.65Z" transform="translate(-76.36 -53.27)"/><path class="cls-6" d="M413,211.27c-9.9,3.91-12.22,2.78-13.35,2.06-2.88-1.85-2-11,4.24-15.61,4.3-3.19,13.59-4.05,15.63-3.94,2,3.68,3.16,7.18,5.2,10.86C422.51,205.5,417.1,209.64,413,211.27Z" transform="translate(-76.36 -53.27)"/><path class="cls-7" d="M427.08,185.17a26,26,0,0,1,4.7,10.59c1.45,8-1.63,16.67-4.88,16.59-2-.06-3.85-3.46-7.21-9.68a76.44,76.44,0,0,1-4.7-10.59Z" transform="translate(-76.36 -53.27)"/><path class="cls-8" d="M424.4,191.26c-15.73,11.79-22.09,13.12-24.69,11.36-3.34-2.27-1.61-10.43,1.84-15.49,6.19-9.08,18.9-9.66,20.93-9.72Z" transform="translate(-76.36 -53.27)"/><path class="cls-9" d="M431.71,169.37a28.27,28.27,0,0,1,3.23,9.29c1.14,7.5-.93,16.56-4.69,16.79-3.37.21-9.67-4.06-10-4.75a20.72,20.72,0,0,1-1.91-13.85C421.72,175.08,428.3,171.14,431.71,169.37Z" transform="translate(-76.36 -53.27)"/><path class="cls-6" d="M417.77,183.29c-8.86,5.52-11.29,4.84-12.51,4.34-3.1-1.27-3.82-10.26,1.34-15.8,3.59-3.84,12.39-6.31,14.37-6.56,2.61,3.19,4.31,6.38,6.92,9.57C425.93,176.05,421.45,181,417.77,183.29Z" transform="translate(-76.36 -53.27)"/><path class="cls-7" d="M426.76,155.63a25.59,25.59,0,0,1,6.39,9.39c2.81,7.5,1.36,16.37-1.79,16.86-1.95.3-4.31-2.65-8.64-8.07a72.93,72.93,0,0,1-6.39-9.38Z" transform="translate(-76.36 -53.27)"/><path class="cls-8" d="M425.25,162c-13.08,14.14-19,16.55-21.79,15.31-3.63-1.6-3.39-9.78-.95-15.27C406.87,152.17,419,149.37,421,149Q423.1,155.47,425.25,162Z" transform="translate(-76.36 -53.27)"/><path class="cls-9" d="M428.45,139.58a27.89,27.89,0,0,1,4.74,8.39c2.42,7,2,16.14-1.56,17-3.22.8-10-2.21-10.5-2.81a20.38,20.38,0,0,1-4.29-13C419.82,146.85,425.47,141.88,428.45,139.58Z" transform="translate(-76.36 -53.27)"/><path class="cls-6" d="M417.52,154.56c-6.27,6.85-8.57,6.92-9.76,6.82-3-.26-6-7.5-2.95-13.41,2.12-4.1,9.14-8.41,10.81-9.13,3.1,2,5.41,4.15,8.52,6.12C422.74,146.47,420.13,151.71,417.52,154.56Z" transform="translate(-76.36 -53.27)"/><path class="cls-7" d="M418.15,129.38a22.52,22.52,0,0,1,8,6.1c4.41,5.47,5.46,13.18,2.84,14.4-1.62.75-4.45-1.08-9.63-4.43a65.31,65.31,0,0,1-8-6.11Z" transform="translate(-76.36 -53.27)"/><path class="cls-8" d="M418.49,135c-7.72,15.06-12.22,18.57-15,18.27-3.57-.38-5.5-7.2-4.81-12.37,1.24-9.27,11.09-14.72,12.68-15.57Z" transform="translate(-76.36 -53.27)"/><path class="cls-9" d="M415.43,115.67a24.39,24.39,0,0,1,6.32,5.71c3.94,5.19,6,12.82,3.08,14.47-2.6,1.49-9.33.77-9.89.39a17.28,17.28,0,0,1-7.12-9.66C409.81,123.91,413.44,118.34,415.43,115.67Z" transform="translate(-76.36 -53.27)"/><path class="cls-6" d="M410.69,131.26c-4.14,7.09-6.1,7.54-7.14,7.65-2.64.29-6.49-5.61-4.94-11.34,1.08-4,6.32-9,7.61-9.87,3,1.21,5.39,2.76,8.4,4C413.7,123.23,412.41,128.3,410.69,131.26Z" transform="translate(-76.36 -53.27)"/><path class="cls-7" d="M406.69,108.92a20.11,20.11,0,0,1,8,4c4.76,4.1,7,10.72,5,12.24-1.25.94-4-.21-9.05-2.3a57.31,57.31,0,0,1-8-4Q404.67,113.9,406.69,108.92Z" transform="translate(-76.36 -53.27)"/><path class="cls-8" d="M408.59,114.24c-3.89,14.59-7.11,18.45-9.55,18.65-3.13.26-6-5.44-6.34-10.11-.61-8.39,6.84-14.85,8.05-15.87Z" transform="translate(-76.36 -53.27)"/><path class="cls-9" d="M402.49,97.68a21.67,21.67,0,0,1,6.44,4c4.31,3.92,7.42,10.31,5.24,12.26-1.95,1.75-7.84,2.24-8.39,2a15.81,15.81,0,0,1-7.84-7.33C399.16,105.9,401.27,100.37,402.49,97.68Z" transform="translate(-76.36 -53.27)"/><path class="cls-6" d="M401.43,111c-1.85,6.89-3.39,7.74-4.24,8.08-2.16.88-6.74-3.08-6.74-8.21,0-3.56,3.25-9,4.13-10,2.81.28,5.16,1,8,1.27C402.13,103.66,402.2,108.18,401.43,111Z" transform="translate(-76.36 -53.27)"/><path class="cls-7" d="M393,93.48a17.37,17.37,0,0,1,7.62,1.43c4.93,2.24,8.37,7.19,7,8.93-.84,1.08-3.42.8-8.13.29a50.87,50.87,0,0,1-7.62-1.43Z" transform="translate(-76.36 -53.27)"/><path class="cls-8" d="M395.78,97.43c.07,13-1.76,17-3.76,17.79-2.57,1-6.29-3.06-7.64-6.85-2.43-6.82,2.35-14,3.13-15.12Z" transform="translate(-76.36 -53.27)"/><path class="cls-9" d="M386.87,85.17a18.81,18.81,0,0,1,6.32,1.74c4.51,2.21,8.59,6.76,7.2,8.9-1.24,1.93-6.08,3.76-6.59,3.7a13.5,13.5,0,0,1-8.27-4.19C386,92.79,386.45,87.7,386.87,85.17Z" transform="translate(-76.36 -53.27)"/><path class="cls-6" d="M390.63,96.32c-.24,5.63-1.29,6.54-1.88,6.94-1.52,1-5.74-1.29-6.63-5.26-.62-2.75,1-7.47,1.46-8.44,2.22-.24,4.16-.07,6.37-.32C389.89,90.49,390.73,94,390.63,96.32Z" transform="translate(-76.36 -53.27)"/><path class="cls-7" d="M381.06,84.1a13.76,13.76,0,0,1,6.13-.13c4.19.93,7.7,4.2,7,5.77-.46,1-2.5,1.18-6.23,1.54a39.33,39.33,0,0,1-6.13.14Z" transform="translate(-76.36 -53.27)"/><path class="cls-8" d="M383.92,86.7c2.3,10.09,1.57,13.47.16,14.38-1.81,1.17-5.38-1.35-7.08-4.06-3.06-4.88-.6-11.21-.19-12.22Z" transform="translate(-76.36 -53.27)"/><path class="cls-9" d="M374.92,78.65a14.88,14.88,0,0,1,5.18.33c3.87,1,7.8,3.84,7.1,5.72-.63,1.69-4.05,3.89-4.45,3.93a10.82,10.82,0,0,1-7.11-1.9C375.52,84.7,375,80.68,374.92,78.65Z" transform="translate(-76.36 -53.27)"/><path class="cls-6" d="M380.11,86.73c.33,5.17-.48,6.29-.95,6.83-1.2,1.36-5,.46-6.18-2.88-.79-2.32.12-7,.45-8.07,1.87-.85,3.55-1.25,5.42-2.1C378.92,81.66,380,84.58,380.11,86.73Z" transform="translate(-76.36 -53.27)"/><path class="cls-7" d="M370.74,78.39A12.86,12.86,0,0,1,376,76.52c3.68-.35,7,1.61,6.52,3.24-.3,1-2,1.78-5.19,3.18a37.39,37.39,0,0,1-5.24,1.87Z" transform="translate(-76.36 -53.27)"/><path class="cls-8" d="M373.44,79.93c2.94,8.49,2.64,11.75,1.52,13-1.45,1.58-4.75.32-6.46-1.66-3.09-3.55-1.59-10-1.33-11Z" transform="translate(-76.36 -53.27)"/><path class="cls-9" d="M365,75.21A13.05,13.05,0,0,1,369.43,74c3.41-.22,7.05,1.25,6.63,3.16-.38,1.71-3.09,4.68-3.44,4.83a8.24,8.24,0,0,1-6.27.31C366.05,80.52,365.25,77,365,75.21Z" transform="translate(-76.36 -53.27)"/><path class="cls-6" d="M369.83,81.24c.34,5.18-.47,6.3-.95,6.83-1.19,1.37-5,.47-6.18-2.88-.79-2.31.12-7,.45-8.06,1.88-.86,3.55-1.25,5.43-2.11C368.65,76.17,369.7,79.09,369.83,81.24Z" transform="translate(-76.36 -53.27)"/><path class="cls-7" d="M360.46,72.9A12.92,12.92,0,0,1,365.7,71c3.69-.35,7,1.61,6.52,3.25-.3,1-2,1.77-5.19,3.17a36.13,36.13,0,0,1-5.24,1.87Z" transform="translate(-76.36 -53.27)"/><path class="cls-8" d="M363.16,74.44c2.94,8.49,2.64,11.76,1.52,13-1.44,1.58-4.74.31-6.46-1.67-3.09-3.55-1.58-10-1.33-11Z" transform="translate(-76.36 -53.27)"/><path class="cls-9" d="M354.68,69.72a13.12,13.12,0,0,1,4.47-1.19c3.41-.22,7.05,1.25,6.63,3.16-.37,1.71-3.09,4.68-3.44,4.83a8.24,8.24,0,0,1-6.27.31C355.78,75,355,71.52,354.68,69.72Z" transform="translate(-76.36 -53.27)"/><path class="cls-6" d="M358.92,77.6c2.21,3.65,1.88,4.6,1.64,5.06-.59,1.18-4.44,1.19-6.72-1a24.91,24.91,0,0,1-4.17-7.2c1.4-.93,4.38-2.39,5.79-3.32C355.94,71.94,358,76.07,358.92,77.6Z" transform="translate(-76.36 -53.27)"/><path class="cls-7" d="M346.32,70.08a10.68,10.68,0,0,1,4.11-2.24c3.24-.87,7,0,7.16,1.22.1.78-.39,2.4-2.77,3.94-1.67,1.08-3.94,1-4.92,1.47Z" transform="translate(-76.36 -53.27)"/><path class="cls-9" d="M339.85,68.79a11.49,11.49,0,0,1,3.66-1.62c3-.74,6.92-.3,7.24,1.13s-1.11,3.9-1.37,4.06a9,9,0,0,1-5.63,1.29C342.81,72.41,340.79,70,339.85,68.79Z" transform="translate(-76.36 -53.27)"/><path class="cls-8" d="M349.79,71.49c5.81,5.59,6.75,8,6.17,9.07-.74,1.38-4.23,1-6.53-.09-4.13-2-5.13-6.9-5.27-7.68Z" transform="translate(-76.36 -53.27)"/><path class="cls-6" d="M345.65,72.36c3,1.75,2.8,4.32,2.74,4.68-.15.94-3.24.16-5.86-.63a9.31,9.31,0,0,1-4-3.07c.92-1,1.93-1.76,2.85-2.76C342.08,71,344.41,71.64,345.65,72.36Z" transform="translate(-76.36 -53.27)"/><path class="cls-7" d="M334.78,71.7a9.19,9.19,0,0,1,2.84-2.61c2.51-1.48,6-2,6.5-1.23.32.48-.54,1.39-2.11,3.06a28.36,28.36,0,0,1-2.84,2.61Z" transform="translate(-76.36 -53.27)"/><path class="cls-9" d="M328,73A10.7,10.7,0,0,1,330.65,71c2.37-1.34,5.82-2.15,6.53-1.31s.23,2.83.05,3a9.44,9.44,0,0,1-4.43,2.42C331.63,74.53,329.18,73.56,328,73Z" transform="translate(-76.36 -53.27)"/><path class="cls-8" d="M335.7,71.6c6.67,2,8.19,3.27,8,4.12-.22,1.11-3.3,1.87-5.61,1.79A9.24,9.24,0,0,1,331.28,74Z" transform="translate(-76.36 -53.27)"/></g><g id="face"><path class="cls-10" d="M256.42,209.86a27.63,27.63,0,0,1-10.14-7.16c-9.89-11.25-6.43-27-5.88-29.36a10.75,10.75,0,0,1-3-1.21c0,3.23.11,6.59.3,10.07a1.46,1.46,0,0,1-2.33,1.24c-13.63-10.2-19-8.32-20.94-7.06-1.54,1-5.43,5.71,4,38.3,4.73,16.34,9.87,18,13.09,18.12,1.42.06,2.78-1,4-2.56a1.46,1.46,0,0,1,2.62,1A51,51,0,0,0,241.54,255c4.19,10.32,12.5,17.43,29.12,31.66,14,12,20.84,15,26.2,16.68a59.6,59.6,0,0,0,16,2.71A142,142,0,0,1,256.42,209.86Z" transform="translate(-76.36 -53.27)"/><path class="cls-10" d="M261.7,149.57a142.36,142.36,0,0,1,50.87-71.69c-10.08.77-30.7,4.13-48.46,19.52-3.76,3.25-19.51,17.55-23.66,38.81a176.6,176.6,0,0,0-2.63,21.67,96.9,96.9,0,0,1,12.37-2.21A87,87,0,0,1,261.7,149.57Z" transform="translate(-76.36 -53.27)"/><path class="cls-11" d="M261.7,149.57a87,87,0,0,0-11.51,6.1,95.21,95.21,0,0,1,9.94-.63Q260.87,152.28,261.7,149.57Z" transform="translate(-76.36 -53.27)"/><path d="M237.47,165.85c-1.4-.21-2.43-.83-2.43-1.57s1.08-1.4,2.53-1.6c.07-1.65.15-3.26.25-4.8-1.57.39-3,.78-4.31,1.16a10.68,10.68,0,0,0,.26,9.45,9.77,9.77,0,0,0,3.63,3.64Q237.39,168.89,237.47,165.85Z" transform="translate(-76.36 -53.27)"/><path d="M246.28,202.7a27.63,27.63,0,0,0,10.14,7.16c-.22-1.77-.4-3.55-.56-5.34a22.7,22.7,0,0,1-7-5.79c-6.44-8-6.68-19.26-2.81-27.06.84-1.69,3.09-8.45,9.19-9.45,1-.17,2.13-.28,3.26-.36.43-2,.88-3.9,1.38-5.82-.57.09-1.09.16-1.51.19-2.36.17-12.58,2.13-12.58,2.13.94-.52,2.48-1.5,4.42-2.69a96.9,96.9,0,0,0-12.37,2.21c-.1,1.54-.18,3.15-.25,4.8a6.88,6.88,0,0,1,.92-.06c1.91,0,3.45.74,3.45,1.66s-1.54,1.66-3.45,1.66a6.56,6.56,0,0,1-1-.09q-.09,3-.07,6.28a10.75,10.75,0,0,0,3,1.21C239.85,175.68,236.39,191.45,246.28,202.7Z" transform="translate(-76.36 -53.27)"/><path d="M250.19,155.67c-1.94,1.19-3.48,2.17-4.42,2.69,0,0,10.22-2,12.58-2.13.42,0,.94-.1,1.51-.19l.27-1A95.21,95.21,0,0,0,250.19,155.67Z" transform="translate(-76.36 -53.27)"/><path class="cls-12" d="M235,164.28c0,.74,1,1.36,2.43,1.57,0-1.08.06-2.13.1-3.17C236.12,162.88,235,163.51,235,164.28Z" transform="translate(-76.36 -53.27)"/><path class="cls-12" d="M238.49,165.94c1.91,0,3.45-.75,3.45-1.66s-1.54-1.66-3.45-1.66a6.88,6.88,0,0,0-.92.06c0,1-.08,2.09-.1,3.17A6.56,6.56,0,0,0,238.49,165.94Z" transform="translate(-76.36 -53.27)"/><path class="cls-13" d="M258.48,161.86c-1.13.08-2.22.19-3.26.36-6.1,1-8.35,7.76-9.19,9.45-3.87,7.8-3.63,19.05,2.81,27.06a22.7,22.7,0,0,0,7,5.79c-.37-4.17-.57-8.38-.57-12.63A142.78,142.78,0,0,1,258.48,161.86Z" transform="translate(-76.36 -53.27)"/><path class="cls-1" d="M317.05,306.09a61.32,61.32,0,0,0,20.2-2.73c5.35-1.69,12.24-4.72,26.2-16.68,16.61-14.23,24.92-21.34,29.11-31.66a50.88,50.88,0,0,0,3.38-23.79,1.45,1.45,0,0,1,2.61-1c1.24,1.57,2.61,2.62,4,2.56,3.22-.15,8.36-1.78,13.09-18.12,9.43-32.59,5.55-37.28,4-38.3-1.93-1.26-7.3-3.14-20.94,7.06a1.46,1.46,0,0,1-2.33-1.24c.21-3.68.3-7.22.31-10.61a10.92,10.92,0,0,1-3.85,1.75c.55,2.34,4,18.11-5.87,29.36a28.3,28.3,0,0,1-10.72,7.41c-.92.39-22.81,9.28-37.54-4.85-12.29-11.81-8.93-29.43-8.68-30.64a4.75,4.75,0,0,1-4-3.32,33.2,33.2,0,0,0-9.31-1v0h-.22v0a33.23,33.23,0,0,0-9.31,1,4.74,4.74,0,0,1-4,3.32c.25,1.21,3.62,18.83-8.68,30.64-14.72,14.13-36.61,5.24-37.53,4.85l-.58-.25a142,142,0,0,0,56.4,96.21C314.36,306.13,315.79,306.12,317.05,306.09ZM338,220.57l-16.09,8.17C325.2,215.72,338,220.57,338,220.57Zm-26.59,8.17-16.08-8.17S308.06,215.72,311.38,228.74Zm-7.66,36.53c-19.48-3.23-29.47-18.61-31.4-21.72a91.85,91.85,0,0,0,12.51-.88c11.12-1.56,16.18-4.41,24.51-3.29a31.08,31.08,0,0,1,7.29,1.93,31.34,31.34,0,0,1,7.3-1.93c8.33-1.12,13.38,1.73,24.51,3.29a91.71,91.71,0,0,0,12.51.88C359,246.66,349,262,329.54,265.27a45.58,45.58,0,0,1-12.91.23A45.58,45.58,0,0,1,303.72,265.27Z" transform="translate(-76.36 -53.27)"/><path class="cls-1" d="M261.7,149.57a41.54,41.54,0,0,1,10.45-3c11.36-1.53,27.05,7.15,27.05,7.15s-3.38,4.68-4.6,4.68-10.68-3-16-4.42c-3.4-.91-9.25.19-14,1.17a93.81,93.81,0,0,1,13.05,1.38,95.16,95.16,0,0,1,26.13,8.71c3.79-.38,8.57-.78,12.71-.92h.22c4.15.14,8.93.54,12.71.92a95.24,95.24,0,0,1,26.14-8.71,93.65,93.65,0,0,1,13.05-1.38c-4.76-1-10.61-2.08-14-1.17-5.28,1.4-14.75,4.42-16,4.42s-4.6-4.68-4.6-4.68,15.7-8.68,27.06-7.15c8.31,1.12,16.68,5.9,22,9.14a99,99,0,0,1,13.22,2.42,178.13,178.13,0,0,0-2.65-21.88C389.5,115,373.75,100.65,370,97.4c-21.1-18.28-46.22-19.59-52.95-19.74h0c-1.06,0-2.58.08-4.48.22A142.36,142.36,0,0,0,261.7,149.57Z" transform="translate(-76.36 -53.27)"/><path class="cls-14" d="M295.3,220.57l16.08,8.17C308.06,215.72,295.3,220.57,295.3,220.57Z" transform="translate(-76.36 -53.27)"/><path class="cls-14" d="M264.63,155.11c4.76-1,10.61-2.08,14-1.17,5.28,1.4,14.75,4.42,16,4.42s4.6-4.68,4.6-4.68-15.69-8.68-27.05-7.15a41.54,41.54,0,0,0-10.45,3q-.84,2.72-1.57,5.47C261.59,155,263.1,155.05,264.63,155.11Z" transform="translate(-76.36 -53.27)"/><path class="cls-15" d="M328,165.94l1.44-.74c-3.78-.38-8.56-.78-12.71-.92h-.22c-4.14.14-8.92.54-12.71.92.5.25,1,.49,1.45.74a4.75,4.75,0,0,1,2,5.1,2.67,2.67,0,0,1-.09.26,33.23,33.23,0,0,1,9.31-1v0h.22v0a33.2,33.2,0,0,1,9.31,1c0-.09-.06-.17-.08-.26A4.73,4.73,0,0,1,328,165.94Z" transform="translate(-76.36 -53.27)"/><path d="M280.13,163.9c6.09,1.37,12.85,3.95,15.2,6.25a23.19,23.19,0,0,1,1.76,1.93v-6.14s2.83-.36,6.72-.74a95.16,95.16,0,0,0-26.13-8.71,93.81,93.81,0,0,0-13.05-1.38c-1.82.37-3.47.71-4.77.93-.5,1.92-.95,3.86-1.38,5.82C265.39,161.38,273.86,162.5,280.13,163.9Z" transform="translate(-76.36 -53.27)"/><path d="M300.42,182.14c0,1.53-.2,15.21-11,22.46-7.09,4.77-14.7,4-19.41,3.58-3.47-.34-9-.88-14.17-3.66.16,1.79.34,3.57.56,5.34l.58.25c.92.39,22.81,9.28,37.53-4.85,12.3-11.81,8.93-29.43,8.68-30.64a4.74,4.74,0,0,0,4-3.32,24.21,24.21,0,0,0-8.19,3.77A15.52,15.52,0,0,1,300.42,182.14Z" transform="translate(-76.36 -53.27)"/><path d="M260.13,155l-.27,1c1.3-.22,2.95-.56,4.77-.93C263.1,155.05,261.59,155,260.13,155Z" transform="translate(-76.36 -53.27)"/><path d="M305.26,165.94c-.47-.25-.95-.49-1.45-.74-3.89.38-6.72.74-6.72.74v6.14a16,16,0,0,1,1.93,3,24.21,24.21,0,0,1,8.19-3.77,2.67,2.67,0,0,0,.09-.26A4.75,4.75,0,0,0,305.26,165.94Z" transform="translate(-76.36 -53.27)"/><path class="cls-14" d="M321.88,228.74,338,220.57S325.2,215.72,321.88,228.74Z" transform="translate(-76.36 -53.27)"/><path class="cls-14" d="M383.08,155.67c-5.28-3.24-13.65-8-22-9.14-11.36-1.53-27.06,7.15-27.06,7.15s3.38,4.68,4.6,4.68,10.69-3,16-4.42c3.4-.91,9.25.19,14,1.17A95.06,95.06,0,0,1,383.08,155.67Z" transform="translate(-76.36 -53.27)"/><path class="cls-16" d="M329.54,265.27C349,262,359,246.66,361,243.55a91.71,91.71,0,0,1-12.51-.88c-11.13-1.56-16.18-4.41-24.51-3.29a31.34,31.34,0,0,0-7.3,1.93,31.08,31.08,0,0,0-7.29-1.93c-8.33-1.12-13.39,1.73-24.51,3.29a91.85,91.85,0,0,1-12.51.88c1.93,3.11,11.92,18.49,31.4,21.72a45.58,45.58,0,0,0,12.91.23A45.58,45.58,0,0,0,329.54,265.27Zm-20.81-4.15c-11.39-1.89-21-9.61-24.17-13l-2-1.24,2,1.24a9.7,9.7,0,0,1-1-1.24c3.68,0,14.81-1.21,16.67-1.47,0,0,10.91-1.33,16.43-.58,5.53-.75,16.43.58,16.43.58,1.87.26,13,1.46,16.67,1.47a9.41,9.41,0,0,1-1,1.24l2-1.24-2,1.24c-3.21,3.4-12.78,11.12-24.17,13a30.19,30.19,0,0,1-7.91.24A30.11,30.11,0,0,1,308.73,261.12Z" transform="translate(-76.36 -53.27)"/><path class="cls-17" d="M324.54,261.12c11.39-1.89,21-9.61,24.17-13l-16.36,10,16.36-10a9.41,9.41,0,0,0,1-1.24c-3.67,0-14.8-1.21-16.67-1.47,0,0-10.9-1.33-16.43-.58-5.52-.75-16.43.58-16.43.58-1.86.26-13,1.46-16.67,1.47a9.7,9.7,0,0,0,1,1.24l16.35,10-16.35-10c3.21,3.4,12.78,11.12,24.17,13a30.11,30.11,0,0,0,7.9.24A30.19,30.19,0,0,0,324.54,261.12Z" transform="translate(-76.36 -53.27)"/><path d="M398.22,164.28c0,.58-.63,1.1-1.59,1.39q.08,2.87.08,5.92a9.66,9.66,0,0,0,2.79-3.1,10.72,10.72,0,0,0,.26-9.45c-1.06-.31-2.22-.63-3.46-.95q.13,2.29.24,4.77C397.54,163.15,398.22,163.67,398.22,164.28Z" transform="translate(-76.36 -53.27)"/><path d="M387.5,158.36s-10.23-2-12.58-2.13a61.53,61.53,0,0,1-6.28-1.12,93.65,93.65,0,0,0-13.05,1.38,95.24,95.24,0,0,0-26.14,8.71c3.89.38,6.73.74,6.73.74v7.22a21.12,21.12,0,0,1,2.3-2.64c2.35-2.29,9.11-4.88,15.2-6.24,7.3-1.64,17.59-2.88,24.91-1.68,6.1,1,8.35,7.76,9.19,9.44,3.87,7.8,3.63,19.06-2.81,27.07s-16.05,8.94-21.19,9.44c-4.71.46-12.32,1.2-19.41-3.57-10.78-7.26-11-20.94-11-22.47a15.44,15.44,0,0,1,1.4-7,24,24,0,0,0-8.74-4.16,4.75,4.75,0,0,0,4,3.32c-.25,1.21-3.61,18.83,8.68,30.64,14.73,14.13,36.62,5.24,37.54,4.85A28.3,28.3,0,0,0,387,202.7c9.89-11.25,6.42-27,5.87-29.36a10.92,10.92,0,0,0,3.85-1.75q0-3.06-.08-5.92a6.18,6.18,0,0,1-1.86.27c-1.9,0-3.44-.75-3.44-1.66s1.54-1.66,3.44-1.66a6.42,6.42,0,0,1,1.77.24q-.1-2.48-.24-4.77a99,99,0,0,0-13.22-2.42C385,156.86,386.55,157.84,387.5,158.36Z" transform="translate(-76.36 -53.27)"/><path d="M336.18,173.16v-7.22s-2.84-.36-6.73-.74l-1.44.74a4.73,4.73,0,0,0-2,5.1c0,.09.06.17.08.26a24,24,0,0,1,8.74,4.16A15.14,15.14,0,0,1,336.18,173.16Z" transform="translate(-76.36 -53.27)"/><path d="M387.5,158.36c-.95-.52-2.48-1.5-4.42-2.69a95.06,95.06,0,0,0-14.44-.56,61.53,61.53,0,0,0,6.28,1.12C377.27,156.4,387.5,158.36,387.5,158.36Z" transform="translate(-76.36 -53.27)"/><path class="cls-18" d="M334.79,175.46a15.44,15.44,0,0,0-1.4,7c0,1.53.2,15.21,11,22.47,7.09,4.77,14.7,4,19.41,3.57,5.14-.5,14.74-1.43,21.19-9.44s6.68-19.27,2.81-27.07c-.84-1.68-3.09-8.44-9.19-9.44-7.32-1.2-17.61,0-24.91,1.68-6.09,1.36-12.85,3.95-15.2,6.24a21.12,21.12,0,0,0-2.3,2.64v3.5C335.73,176.23,335.26,175.83,334.79,175.46Z" transform="translate(-76.36 -53.27)"/><path class="cls-18" d="M336.18,176.66v-3.5a15.14,15.14,0,0,0-1.39,2.3C335.26,175.83,335.73,176.23,336.18,176.66Z" transform="translate(-76.36 -53.27)"/><path class="cls-15" d="M398.22,164.28c0-.61-.68-1.13-1.68-1.42,0,.92.07,1.85.09,2.81C397.59,165.38,398.22,164.86,398.22,164.28Z" transform="translate(-76.36 -53.27)"/><path class="cls-15" d="M394.77,162.62c-1.9,0-3.44.74-3.44,1.66s1.54,1.66,3.44,1.66a6.18,6.18,0,0,0,1.86-.27c0-1-.05-1.89-.09-2.81A6.42,6.42,0,0,0,394.77,162.62Z" transform="translate(-76.36 -53.27)"/><path class="cls-18" d="M289.44,204.6c10.78-7.25,11-20.93,11-22.46a15.52,15.52,0,0,0-1.4-7.07,18.09,18.09,0,0,0-1.93,1.59v-4.58a23.19,23.19,0,0,0-1.76-1.93c-2.35-2.3-9.11-4.88-15.2-6.25-6.27-1.4-14.74-2.52-21.65-2a142.78,142.78,0,0,0-3.19,30c0,4.25.2,8.46.57,12.63,5.19,2.78,10.7,3.32,14.17,3.66C274.74,208.63,282.35,209.37,289.44,204.6Z" transform="translate(-76.36 -53.27)"/><path class="cls-18" d="M299,175.07a16,16,0,0,0-1.93-3v4.58A18.09,18.09,0,0,1,299,175.07Z" transform="translate(-76.36 -53.27)"/></g></svg>