<svg id="Layer_2" data-name="Layer 2" xmlns="http://www.w3.org/2000/svg" viewBox="0 0 542.66 514.56"><defs><style>.cls-1{fill:#88a61c;}.cls-2{fill:#d0f252;}.cls-3{fill:#fae39e;}.cls-4,.cls-5{fill:#f2b90c;}.cls-4{opacity:0.41;}.cls-6{fill:none;}.cls-7{fill:#b32515;}.cls-8{fill:#adacac;}.cls-9{fill:red;}</style></defs><path class="cls-1" d="M484.4,354.41c3.76,1.65,8.28,1,11.53,3.29s5.82,5.33,8.58,8.21,1.73,8.07,3.89,11.44,5.89,5.14,7.36,8.89,3.58,6.88,4.3,10.85.49,7.63.41,11.69-2.54,7.11-3.41,11.09,2.47,8.78.82,12.55-.11,9.81-2.37,13.06-9.41,3.11-12.28,5.88-3,9.81-6.39,12-7.56,5-11.3,6.51-8.92,1.24-12.89,2-8.67.55-12.72.47-8.32-1.93-12.3-2.81-5.76-7.39-9.52-9-11.94,4.43-15.19,2.17-5.11-7.69-7.87-10.56-4-7.52-6.14-10.9-2.47-7.71-3.93-11.46.09-7.88-.63-11.85-5.49-7.31-5.41-11.36,4.81-7.19,5.69-11.18-6.07-10.49-4.43-14.25,10.52-3.68,12.78-6.93,6.71-3.78,9.58-6.55,2.14-9.36,5.51-11.52,6.71-4.63,10.46-6.1,7.5-3.79,11.47-4.51,8.27.6,12.33.67,8.29-.79,12.27.09S480.64,352.77,484.4,354.41Z"/><path class="cls-2" d="M539,449.5c0,4.11,2.37,8,1.6,11.88s-2.56,7.47-4.08,11.15-6.71,4.82-8.94,8.15-2.35,7.45-5.19,10.29-4.88,6-8.23,8.29-6.8,3.5-10.55,5.05-7.53.52-11.53,1.31-7.06,5.78-11.17,5.78-9,3.82-12.91,3.05-6.63-7.37-10.31-8.9-10.2,1.17-13.53-1.06-7.64-4.91-10.48-7.76-4.71-7.67-6.95-11-4-7.73-5.52-11.48-1.56-8.39-2.35-12.39,4.47-8.23,4.47-12.34-8.84-9.17-8.07-13.05,5-7.76,6.53-11.44,5.3-6.66,7.53-10,6.08-5.36,8.92-8.2,7.26-3.07,10.61-5.32,4.5-7.95,8.25-9.5,8.52,1.53,12.52.74,7.18-9.76,11.29-9.76,7.58,8.17,11.46,8.93,6.16,4.64,9.84,6.16,9.43-1.78,12.76.44,6.93,4.3,9.78,7.14,6.48,5.37,8.72,8.72,2.77,7.82,4.32,11.56,4,7.29,4.83,11.29S539,445.39,539,449.5Z"/><path class="cls-3" d="M457.36,274l-212-238-215,239,38,239h52.79c-2.26-73.4-4.53-132.68-6.79-207,.52-6,1.76-30.43,5-40,14.12-41.67,51.52-61.5,60-66,6.87-3.64,64.72-33,124-2,42.18,22.09,68.95,66.33,70,115q-1.91,100-3.83,200h49.83Z"/><path class="cls-4" d="M373.36,314q-1.92,100-3.83,200H343.28q1.55-90.58,3.08-181.16c-.84-44-22.34-84.09-56.22-104.09-47.6-28.09-94.06-1.48-99.58,1.81-6.81,4.07-36.85,22-48.18,59.74-2.61,8.67-3.61,30.79-4,36.21,1.82,67.31,3.64,121,5.45,187.49H121.15c-2.27-73.4-4.53-132.68-6.79-207,.52-6,1.76-30.43,5-40,14.12-41.67,51.52-61.5,60-66,6.87-3.64,64.72-33,124-2C345.54,221.09,372.31,265.33,373.36,314Z"/><path class="cls-5" d="M373.36,314q-1.92,100-3.83,200H343.28q1.55-90.58,3.08-181.16c-.84-44-22.34-84.09-56.22-104.09-47.6-28.09-94.06-1.48-99.58,1.81-6.81,4.07-36.85,22-48.18,59.74-2.61,8.67-3.61,30.79-4,36.21,1.82,67.31,3.64,121,5.45,187.49H121.15c-2.27-73.4-4.53-132.68-6.79-207,.52-6,1.76-30.43,5-40,14.12-41.67,51.52-61.5,60-66,6.87-3.64,64.72-33,124-2C345.54,221.09,372.31,265.33,373.36,314Z"/><line class="cls-6" x1="343.28" y1="514" x2="143.81" y2="514"/><path class="cls-7" d="M346.36,332.84c-.84-44-22.34-84.09-56.21-104.09-47.61-28.09-94.07-1.48-99.59,1.81-6.81,4.07-36.84,22-48.18,59.74-2.61,8.67-3.6,30.79-4,36.21,1.82,67.31,3.64,121,5.45,187.49H343.29Q344.82,423.42,346.36,332.84Z"/><polygon class="cls-7" points="221.36 0 265.36 0 457.36 227 478.36 296 469.36 307 266.36 77 221.36 77 18.36 307 5.36 297 27.36 226 221.36 0"/><circle class="cls-5" cx="180.86" cy="400.5" r="12.5"/><path class="cls-8" d="M77.36,404a36,36,0,0,0-36-36h0a36,36,0,0,0-36,36v43h72Z"/><rect class="cls-8" x="31.36" y="418" width="20" height="96"/><rect class="cls-9" y="380.73" width="5.36" height="32.27"/></svg>