<svg xmlns="http://www.w3.org/2000/svg" viewBox="0 0 1628.64 1052.46"><defs><style>.cls-1{fill:#9acdd9;}.cls-2{fill:#56acbf;}.cls-3{fill:#999;}.cls-4{fill:#88a61c;}.cls-5{fill:#d0f252;}.cls-6{fill:#f2b90c;}.cls-7{fill:#e2d639;}.cls-8{fill:#eae588;}.cls-9{fill:#fff;}.cls-10{fill:#667d15;}.cls-11{fill:#9cb53e;}.cls-12{fill:#cbe5f4;}.cls-13{fill:#666;}.cls-14{fill:#4d4d4d;}.cls-15{fill:gray;}.cls-16{fill:#f5fafd;}</style></defs><g id="background"><path class="cls-1" d="M1584.63,530.17H1429.31c-22.49,0-40.73-18.63-40.73-41.61V465c0-23,18.24-41.61,40.73-41.61h50.24c22.49,0,40.73-18.63,40.73-41.61V358.19c0-23-18.24-41.61-40.73-41.61H1370.16c-22.5,0-40.73-18.63-40.73-41.61V255.2c0-23,18.23-41.61,40.73-41.61h170.46c22.49,0,40.73-18.63,40.73-41.61V148.4c0-23-18.24-41.61-40.73-41.61H1262.38c-22.5,0-40.73-18.62-40.73-41.6V41.61c0-23-18.24-41.61-40.74-41.61H516.09c-22.5,0-40.73,18.63-40.73,41.61V65.19c0,23-18.24,41.6-40.73,41.6H196.08c-22.49,0-40.73,18.63-40.73,41.61V172c0,23,18.24,41.61,40.73,41.61H425.63c22.49,0,40.73,18.63,40.73,41.61V275c0,23-18.24,41.61-40.73,41.61H257.15c-22.49,0-40.73,18.63-40.73,41.61v23.57c0,23-18.23,41.61-40.73,41.61h-135C18.24,423.37,0,442,0,465v23.58c0,23,18.24,41.61,40.73,41.61h240c22.5,0,40.73,18.62,40.73,41.6v19.78c0,23-18.23,41.61-40.73,41.61H66.3c-22.5,0-40.73,18.62-40.73,41.6v23.58c0,23,18.23,41.61,40.73,41.61H1447.42c22.5,0,40.73-18.63,40.73-41.61V678.57c0-23,18.24-41.61,40.73-41.61h55.75c22.5,0,40.73-18.63,40.73-41.61V571.77C1625.36,548.79,1607.13,530.17,1584.63,530.17Z"/><path class="cls-2" d="M1628.64,867.1V847.18c0-16.07-15.17-29.1-33.88-29.1h-88c-18.72,0-33.88-13-33.88-29.11V769.06C1472.9,753,1457.73,740,1439,740H203.89C185.18,740,170,753,170,769.06V789c0,16.08,15.17,29.11,33.88,29.11h80.16c18.71,0,33.88,13,33.88,29.1V867.1c0,16.07-15.17,29.1-33.88,29.1H164.25c-18.71,0-33.88,13-33.88,29.11v19.92c0,16.07,15.17,29.1,33.88,29.1H403c18.71,0,33.88,13,33.88,29.11v19.91c0,16.08,15.17,29.11,33.88,29.11H1496.67c18.72,0,33.88-13,33.88-29.11v-19.91c0-16.08-15.16-29.11-33.88-29.11h-29.53c-18.71,0-33.88-13-33.88-29.1V925.31c0-16.07,15.17-29.11,33.88-29.11h127.62C1613.47,896.2,1628.64,883.17,1628.64,867.1Z"/><path class="cls-1" d="M1110.17,813.87v-3.49a12.8,12.8,0,0,0-12.8-12.81h-38.71a12.8,12.8,0,0,1-12.8-12.8v-3.5a12.8,12.8,0,0,1,12.8-12.8h30.23a12.81,12.81,0,0,0,12.8-12.81v-3.5a12.8,12.8,0,0,0-12.8-12.8H688.62a12.81,12.81,0,0,0-12.81,12.8v3.5A12.81,12.81,0,0,1,663,768.47H635.23a12.8,12.8,0,0,0-12.8,12.8v3.5a12.8,12.8,0,0,0,12.8,12.8h68.61a12.8,12.8,0,0,1,12.8,12.81v3.49a12.8,12.8,0,0,1-12.8,12.81H669.47a12.8,12.8,0,0,0-12.8,12.8V843a12.8,12.8,0,0,0,12.8,12.8H746.3a12.82,12.82,0,0,1,12.81,12.81v2.56A12.81,12.81,0,0,1,746.3,884h-4.39a12.81,12.81,0,0,0-12.8,12.81v3.5a12.8,12.8,0,0,0,12.8,12.8H796.6a12.81,12.81,0,0,1,12.81,12.81v3.49a12.8,12.8,0,0,0,12.8,12.81h229.44a12.8,12.8,0,0,0,12.8-12.81v-3.49a12.8,12.8,0,0,0-12.8-12.81h-41a12.8,12.8,0,0,1-12.8-12.8V897.7a12.8,12.8,0,0,1,12.8-12.81h8a12.8,12.8,0,0,0,12.8-12.8v-3.5a12.81,12.81,0,0,0-12.8-12.81h-.6a12.8,12.8,0,0,1-12.81-12.8v-3.5a12.8,12.8,0,0,1,12.81-12.8h79.31A12.8,12.8,0,0,0,1110.17,813.87Z"/><rect class="cls-1" x="471.81" y="825.26" width="129.19" height="13.54" rx="6.77"/><rect class="cls-1" x="722.01" y="982.13" width="85.97" height="13.54" rx="6.77"/><rect class="cls-1" x="1126.63" y="896.2" width="85.97" height="13.54" rx="6.77"/><rect class="cls-1" x="1199.2" y="777.8" width="129.19" height="13.54" rx="6.77"/></g><g id="island"><rect class="cls-3" x="1176.62" y="561.07" width="2.16" height="10.23"/><path class="cls-4" d="M1161.35,545.64a16.52,16.52,0,0,0,16.52,16.51v-33A16.52,16.52,0,0,0,1161.35,545.64Z"/><path class="cls-5" d="M1177.87,529.13v33a16.51,16.51,0,1,0,0-33Z"/><rect class="cls-4" x="1180.79" y="556.02" width="2.64" height="0.82"/><rect class="cls-4" x="1184.24" y="551.22" width="2.64" height="0.82"/><rect class="cls-4" x="1181.58" y="544.85" width="2.64" height="0.82"/><rect class="cls-4" x="1179.77" y="534.4" width="2.64" height="0.82"/><rect class="cls-4" x="1185.56" y="540.88" width="2.64" height="0.82"/><polygon class="cls-6" points="1209.71 219.73 1192.39 233.28 1203.23 252.41 1182.03 258.27 1184.71 280.1 1162.88 277.42 1157.02 298.62 1137.89 287.78 1124.34 305.1 1110.79 287.78 1091.66 298.62 1085.8 277.42 1063.97 280.1 1066.64 258.27 1045.44 252.41 1056.28 233.28 1038.96 219.73 1056.28 206.18 1045.44 187.04 1066.64 181.19 1063.97 159.36 1085.8 162.03 1091.66 140.83 1110.79 151.67 1124.34 134.35 1137.89 151.67 1157.02 140.83 1162.88 162.03 1184.71 159.36 1182.04 181.19 1203.23 187.05 1192.39 206.18 1209.71 219.73"/><path class="cls-7" d="M1066.12,219.73a58.22,58.22,0,0,0,58.22,58.21V161.51A58.23,58.23,0,0,0,1066.12,219.73Z"/><path class="cls-8" d="M1124.34,161.51V277.94a58.22,58.22,0,0,0,0-116.43Z"/><path class="cls-9" d="M923.33,403.57a38.88,38.88,0,0,1,52.57-36.36,56.29,56.29,0,0,1,109.31,18.92c0,1.41-.06,2.79-.16,4.17h8.87a26,26,0,0,1,13.52,3.77c.35.22.71.44,1,.68a26,26,0,0,1,5.54,5c.53.65,1,1.31,1.5,2a24.64,24.64,0,0,1,1.31,2.15,26,26,0,0,1,3.14,12.42h0a26.06,26.06,0,0,1-26.06,26.06H960.45a26.17,26.17,0,0,1-7.76-1.17A38.87,38.87,0,0,1,923.33,403.57Z"/><path class="cls-6" d="M1400.53,685.21H1376a18.39,18.39,0,0,1-6-1H344.88a18.3,18.3,0,0,1-6,1H314.35A18.38,18.38,0,0,0,296,703.59V722a18.38,18.38,0,0,0,18.39,18.38H1400.53A18.38,18.38,0,0,0,1418.91,722V703.59A18.38,18.38,0,0,0,1400.53,685.21Z"/><path class="cls-10" d="M1357.61,666.83v-18.9H357.27v18.9a18.38,18.38,0,0,1-12.39,17.36H1370A18.37,18.37,0,0,1,1357.61,666.83Z"/><path class="cls-11" d="M1357.61,630.06h0a18.38,18.38,0,0,0-18.39-18.38H375.65a18.38,18.38,0,0,0-18.38,18.38h0v17.87H1357.61Z"/><path class="cls-12" d="M834.67,86.53V330.89c-4.4-5.58-8.94-11-17.71-11-18.2,0-18.2,23.15-36.39,23.15s-18.19-23.15-36.38-23.15c-7.06,0-11.38,3.49-15.08,7.75Z"/><path class="cls-9" d="M942.76,333.44c-4.09,5.07-8.58,9.64-16.66,9.64-18.18,0-18.18-23.15-36.38-23.15s-18.18,23.15-36.38,23.15c-9.41,0-14-6.21-18.67-12.19V86.53Z"/><path class="cls-13" d="M817,319.92c-17.29,0-18.15,20.9-33.82,23l-54,268.77H834.67V330.89C830.27,325.31,825.73,319.92,817,319.92Z"/><path class="cls-14" d="M780.57,343.07c-18.19,0-18.19-23.15-36.38-23.15-7.06,0-11.38,3.5-15.09,7.77l-124.31,284H729.11l54-268.77A18.93,18.93,0,0,1,780.57,343.07Z"/><path class="cls-15" d="M853.34,343.07c-9.42,0-14-6.2-18.67-12.18V611.66H942.76L883,321.21C871.17,326.05,868.94,343.07,853.34,343.07Z"/><path class="cls-3" d="M942.75,333.44c-4.09,5.07-8.57,9.63-16.65,9.63-18.19,0-18.19-23.15-36.38-23.15a17.39,17.39,0,0,0-6.75,1.29l59.79,290.45h121.78Z"/><path class="cls-12" d="M599.31,327.65V459.82c-3.38-3-6.86-5.93-13.59-5.93-14,0-14,12.52-27.93,12.52s-13.95-12.52-27.92-12.52a17,17,0,0,0-11.57,4.19Z"/><path class="cls-16" d="M682.25,461.19c-3.13,2.75-6.58,5.22-12.78,5.22-14,0-14-12.52-27.92-12.52s-13.95,12.52-27.91,12.52c-7.22,0-10.72-3.36-14.33-6.59V327.65Z"/><path class="cls-13" d="M599.31,611.68V459.82c-3.37-3-6.86-5.94-13.59-5.94-13.27,0-13.94,11.31-26,12.43L518.3,611.68"/><path class="cls-14" d="M518.3,611.68l41.46-145.37c-.62.06-1.27.1-2,.1-13.95,0-13.95-12.53-27.91-12.53a17,17,0,0,0-11.58,4.2l-95.4,153.6"/><path class="cls-15" d="M682.25,611.68l-45.87-157.1c-9.06,2.62-10.77,11.83-22.74,11.83-7.23,0-10.71-3.36-14.33-6.59V611.68"/><path class="cls-3" d="M775.72,611.68,682.25,461.19c-3.13,2.75-6.58,5.22-12.78,5.22-14,0-14-12.53-27.91-12.53a18.18,18.18,0,0,0-5.18.7l45.87,157.1"/><path class="cls-10" d="M838.27,611.66A313.85,313.85,0,0,0,941.16,580.6c78.49-39.62,93.08-51.9,139.48-51.88,44.23,0,52.31,7.87,122.34,46.45,50.89,28,99.66,34.81,130.9,36.49Z"/><polygon class="cls-4" points="1199.2 599.29 1221.53 599.29 1221.53 548.26 1199.2 599.29"/><polygon class="cls-5" points="1221.53 548.26 1221.53 599.29 1243.87 599.29 1221.53 548.26"/><polygon class="cls-4" points="1221.7 580.65 1219.13 581.98 1223.94 581.98 1221.7 580.65"/><polygon class="cls-4" points="1225.9 568.11 1223.33 569.44 1228.14 569.44 1225.9 568.11"/><polygon class="cls-4" points="1225.43 591.66 1222.86 592.99 1227.67 592.99 1225.43 591.66"/><polygon class="cls-4" points="1232.87 585.74 1230.3 587.07 1235.11 587.07 1232.87 585.74"/><polygon class="cls-4" points="1221.7 558.36 1219.13 559.69 1223.94 559.69 1221.7 558.36"/><polygon class="cls-4" points="1236.54 594.32 1233.97 595.64 1238.78 595.64 1236.54 594.32"/><polygon class="cls-4" points="1229.72 575.68 1227.15 577.01 1231.96 577.01 1229.72 575.68"/><path class="cls-11" d="M682.25,612.66c24.59-2.09,62.06-7.14,102.9-21.22C863.64,564.37,878.23,556,924.63,556c44.23,0,52.3,5.38,122.33,31.73,50.89,19.15,99.66,23.78,130.91,24.93Z"/><polygon class="cls-4" points="964.15 622.89 1032.92 622.89 1032.92 465.79 964.15 622.89"/><polygon class="cls-5" points="1032.92 465.79 1032.92 622.89 1101.69 622.89 1032.92 465.79"/><polygon class="cls-4" points="1033.43 565.5 1025.52 569.58 1040.33 569.58 1033.43 565.5"/><polygon class="cls-4" points="1046.37 526.89 1038.45 530.98 1053.26 530.98 1046.37 526.89"/><polygon class="cls-4" points="1044.92 599.4 1037 603.49 1051.81 603.49 1044.92 599.4"/><polygon class="cls-4" points="1067.82 581.17 1059.9 585.26 1074.71 585.26 1067.82 581.17"/><polygon class="cls-4" points="1033.43 496.88 1025.52 500.97 1040.33 500.97 1033.43 496.88"/><polygon class="cls-4" points="1079.13 607.57 1071.21 611.66 1086.02 611.66 1079.13 607.57"/><polygon class="cls-4" points="1058.11 550.21 1050.2 554.3 1065.01 554.3 1058.11 550.21"/><polygon class="cls-4" points="821.65 588.28 869.93 588.28 869.93 477.98 821.65 588.28"/><polygon class="cls-5" points="869.93 477.98 869.93 588.28 918.22 588.28 869.93 477.98"/><polygon class="cls-4" points="870.29 547.98 864.73 550.85 875.13 550.85 870.29 547.98"/><polygon class="cls-4" points="879.37 520.88 873.82 523.75 884.21 523.75 879.37 520.88"/><polygon class="cls-4" points="878.35 571.78 872.8 574.65 883.19 574.65 878.35 571.78"/><polygon class="cls-4" points="894.43 558.99 888.88 561.85 899.27 561.85 894.43 558.99"/><polygon class="cls-4" points="870.29 499.81 864.73 502.68 875.13 502.68 870.29 499.81"/><polygon class="cls-4" points="902.37 577.52 896.82 580.39 907.21 580.39 902.37 577.52"/><polygon class="cls-4" points="887.62 537.25 882.06 540.12 892.46 540.12 887.62 537.25"/><rect class="cls-3" x="536.41" y="587.58" width="6.36" height="30.16"/><path class="cls-4" d="M491.33,542.77A48.71,48.71,0,0,0,540,591.48V494.07A48.71,48.71,0,0,0,491.33,542.77Z"/><path class="cls-5" d="M540,494.07v97.41a48.71,48.71,0,0,0,0-97.41Z"/><rect class="cls-4" x="548.21" y="573.72" width="7.8" height="2.42"/><rect class="cls-4" x="558.39" y="559.58" width="7.8" height="2.42"/><rect class="cls-4" x="550.56" y="540.78" width="7.8" height="2.42"/><rect class="cls-4" x="545.23" y="509.97" width="7.8" height="2.42"/><rect class="cls-4" x="562.28" y="529.09" width="7.8" height="2.42"/><rect class="cls-3" x="1094.33" y="524.99" width="3.36" height="15.95"/><path class="cls-4" d="M1070.25,500.41A25.76,25.76,0,0,0,1096,526.16V474.65A25.76,25.76,0,0,0,1070.25,500.41Z"/><path class="cls-5" d="M1096,474.65v51.51a25.76,25.76,0,1,0,0-51.51Z"/><rect class="cls-4" x="1101.98" y="515.55" width="4.12" height="1.28"/><rect class="cls-4" x="1107.36" y="508.07" width="4.12" height="1.28"/><rect class="cls-4" x="1103.22" y="498.13" width="4.12" height="1.28"/><rect class="cls-4" x="1100.41" y="481.83" width="4.12" height="1.28"/><rect class="cls-4" x="1109.42" y="491.95" width="4.12" height="1.28"/><rect class="cls-3" x="951.74" y="554.8" width="3.61" height="21.88"/><path class="cls-4" d="M918.22,523.35a35.32,35.32,0,0,0,35.32,35.33V488A35.32,35.32,0,0,0,918.22,523.35Z"/><path class="cls-5" d="M953.54,488v70.66a35.33,35.33,0,1,0,0-70.66Z"/><rect class="cls-4" x="960.72" y="545.41" width="5.66" height="1.76"/><rect class="cls-4" x="968.11" y="535.15" width="5.66" height="1.76"/><rect class="cls-4" x="962.43" y="521.51" width="5.66" height="1.76"/><rect class="cls-4" x="958.56" y="499.16" width="5.66" height="1.76"/><rect class="cls-4" x="970.93" y="513.03" width="5.66" height="1.76"/><polygon class="cls-4" points="605.27 624.92 627.61 624.92 627.61 573.89 605.27 624.92"/><polygon class="cls-5" points="627.61 573.89 627.61 624.92 649.95 624.92 627.61 573.89"/><polygon class="cls-4" points="627.78 606.27 625.21 607.6 630.02 607.6 627.78 606.27"/><polygon class="cls-4" points="631.98 593.74 629.41 595.06 634.22 595.06 631.98 593.74"/><polygon class="cls-4" points="631.51 617.29 628.94 618.62 633.75 618.62 631.51 617.29"/><polygon class="cls-4" points="638.95 611.37 636.38 612.69 641.19 612.69 638.95 611.37"/><polygon class="cls-4" points="627.78 583.99 625.21 585.32 630.02 585.32 627.78 583.99"/><polygon class="cls-4" points="642.62 619.94 640.05 621.27 644.86 621.27 642.62 619.94"/><polygon class="cls-4" points="635.79 601.31 633.23 602.64 638.03 602.64 635.79 601.31"/><path class="cls-9" d="M815,232.24a38.88,38.88,0,0,0-52.57-36.36,56.29,56.29,0,0,0-109.31,18.93c0,1.4,0,2.78.15,4.16h-8.86a26,26,0,0,0-13.52,3.77c-.36.22-.71.45-1.06.68a26.18,26.18,0,0,0-5.53,5,23.83,23.83,0,0,0-1.5,2,24.64,24.64,0,0,0-1.31,2.15,25,25,0,0,0-1.56,3.46,25.83,25.83,0,0,0-1.59,9h0a26.07,26.07,0,0,0,26.07,26.06H777.85a26.17,26.17,0,0,0,7.76-1.17A38.88,38.88,0,0,0,815,232.24Z"/><polygon class="cls-4" points="688.82 619.49 757.59 619.49 757.59 462.39 688.82 619.49"/><polygon class="cls-5" points="757.59 462.39 757.59 619.49 826.36 619.49 757.59 462.39"/><polygon class="cls-4" points="758.1 562.1 750.18 566.18 764.99 566.18 758.1 562.1"/><polygon class="cls-4" points="771.03 523.49 763.12 527.58 777.93 527.58 771.03 523.49"/><polygon class="cls-4" points="769.58 596 761.67 600.09 776.48 600.09 769.58 596"/><polygon class="cls-4" points="792.48 577.77 784.57 581.85 799.38 581.85 792.48 577.77"/><polygon class="cls-4" points="758.1 493.48 750.18 497.57 764.99 497.57 758.1 493.48"/><polygon class="cls-4" points="803.8 604.17 795.88 608.26 810.69 608.26 803.8 604.17"/><polygon class="cls-4" points="782.78 546.81 774.86 550.89 789.67 550.89 782.78 546.81"/></g></svg>