<svg id="Layer_1" data-name="Layer 1" xmlns="http://www.w3.org/2000/svg" viewBox="0 0 447.62 433.57"><defs><style>.cls-1{fill:#88a61c;}</style></defs><path class="cls-1" d="M445.7,288.93c-4.5,32-17.28,59.73-42.8,80.54-5.26,4.29-11.16,7.84-16.95,11.45-1.5.93-3.66.81-5.52,1.18-.19-1.87-.91-3.86-.49-5.58,2.77-11.21,4.61-22.52,4.47-34.1-.14-10.46-1.89-20.6-6.51-30.05C370.54,297.29,358,288,342.24,284c-24.49-6.12-48.51-4.64-70.09,9.92-13.81,9.3-23.75,21.75-26.53,38.91-1.72,10.61-2.88,21.24-.05,31.75,4.66,17.29,16.53,29.2,31.26,38,7.88,4.7,17.2,7,25.87,10.35,1.89.75,3.75,1.59,5.63,2.38l.09,1.56a52.3,52.3,0,0,1-5.86,2.8,254.5,254.5,0,0,1-66.09,12.76c-35.72,2.36-71.41,1.44-106.45-6.3-20.79-4.59-41.22-11-61.56-17.37-18.26-5.75-36.2-12.52-54.2-19.07A81.92,81.92,0,0,1,2.7,383.84c-3.07-1.7-3.53-3.93-1.33-7,26.12-36.25,38.92-77.78,47.38-120.93,4.94-25.17,9.22-50.48,14-75.69C67.9,153,81.51,129.84,98.46,108.48c11.27-14.21,24.25-26.77,40.58-35a154.37,154.37,0,0,1,27.39-10.63c29.3-8.28,59.06-10.44,89-3.64,30.7,7,54.63,23.85,71.54,50.53,1.33,2.1,2.73,4.17,4.19,6.19.36.49,1.08.71,2.74,1.75,1.14-2.73,2.28-4.87,3-7.15Q351.79,60.21,366.6,9.85c3.47-11.88,3.52-12,14.32-5.62q19.32,11.52,38.54,23.2c6.61,4,6.8,5.6,2,11.57q-34.23,43-68.38,86.11c-1.26,1.58-2.05,3.53-3.59,6.25,3.27.59,5.45,1.13,7.66,1.37,17.25,1.87,33.74,6.22,48.81,15.11,16.51,9.74,26.46,24.14,31.38,42.66C446,222.87,450.41,255.52,445.7,288.93Z"/></svg>