<svg id="Layer_1" data-name="Layer 1" xmlns="http://www.w3.org/2000/svg" viewBox="0 0 631 631"><defs><style>.cls-1{fill:#99e6d7;}.cls-2{fill:#f28f79;}.cls-3{fill:#f5a594;}.cls-4{fill:#f9b170;}.cls-5{fill:#fcd0a9;}.cls-6{fill:none;stroke:#000;stroke-miterlimit:10;}.cls-7{fill:#fde0c6;}.cls-8{fill:#56acbf;}.cls-9{fill:#feefe2;}.cls-10{fill:#153259;}</style></defs><path class="cls-1" d="M536.05,342.21h93.81C616.3,504,480.75,631,315.5,631S14.7,504,1.14,342.21H536.05Z"/><path class="cls-2" d="M315.5,0C141.25,0,0,141.25,0,315.5c0,9,.4,17.9,1.14,26.71H95C95.11,220.54,193.79,122,315.5,122s220.39,98.59,220.55,220.26h93.81c.74-8.81,1.14-17.71,1.14-26.71C631,141.25,489.75,0,315.5,0Z"/><path class="cls-3" d="M536.05,342.21H497a180.62,180.62,0,0,0-28.16-96.8c-53.63-84.69-165.75-109.88-250.44-56.26A181.38,181.38,0,0,0,134,342.21H95C95.11,220.54,193.79,122,315.5,122S535.89,220.54,536.05,342.21Z"/><path class="cls-4" d="M497,342.21H458.5a143,143,0,0,0-286,0H134a181.38,181.38,0,0,1,84.43-153.06c84.69-53.62,196.81-28.43,250.44,56.26A180.62,180.62,0,0,1,497,342.21Z"/><path class="cls-5" d="M315.5,241.5a101,101,0,0,1,101,100.71h42a143,143,0,0,0-286,0h42A101,101,0,0,1,315.5,241.5Z"/><path class="cls-6" d="M172.5,342.21"/><path class="cls-6" d="M214.5,342.21"/><path class="cls-6" d="M416.5,342.21"/><path class="cls-6" d="M458.5,342.21"/><path class="cls-7" d="M416.5,342.21h-202a101,101,0,0,1,202,0Z"/><path class="cls-8" d="M592.39,363.86h0c0-4.13-5.37-7.49-12-7.49h-498c-6.63,0-12,3.36-12,7.49h0c0,4.14,5.37,7.49,12,7.49h24c6.63,0,12,3.35,12,7.49h0c0,4.13-5.37,7.49-12,7.49h-30c-6.63,0-12,3.35-12,7.49h0c0,4.13,5.37,7.48,12,7.48h67c6.63,0,12,3.36,12,7.49h0c0,4.14-5.37,7.49-12,7.49h-8c-6.63,0-12,3.35-12,7.49h0c0,4.13,5.37,7.49,12,7.49h130c6.63,0,12,3.35,12,7.49h0c0,4.13-5.37,7.48-12,7.48h-30c-6.63,0-12,3.36-12,7.49h0c0,4.14,5.37,7.49,12,7.49h181c6.63,0,12-3.35,12-7.49h0c0-4.13-5.37-7.49-12-7.49h-30c-6.63,0-12-3.35-12-7.48h0c0-4.14,5.37-7.49,12-7.49h110c6.63,0,12-3.36,12-7.49h0c0-4.14-5.37-7.49-12-7.49h-8c-6.63,0-12-3.35-12-7.49h0c0-4.13,5.37-7.49,12-7.49h63c6.63,0,12-3.35,12-7.48h0c0-4.14-5.37-7.49-12-7.49h-46c-6.63,0-12-3.36-12-7.49h0c0-4.14,5.37-7.49,12-7.49h75C587,371.35,592.39,368,592.39,363.86Z"/><path class="cls-9" d="M541.39,349.35V349c0-4.05-5.26-7.33-11.75-7.33h-400c-6.49,0-11.75,3.28-11.75,7.33v.31c0,4,5.26,7.34,11.75,7.34h72c6.49,0,11.75,3.28,11.75,7.33h0c0,4.05-5.26,7.33-11.75,7.33h-34.5c-6.49,0-11.75,3.28-11.75,7.33V379c0,4,5.26,7.33,11.75,7.33h74.5c6.49,0,11.75,3.28,11.75,7.33V394c0,4-5.26,7.33-11.75,7.33h-51.5c-6.49,0-11.75,3.29-11.75,7.34V409c0,4.05,5.26,7.33,11.75,7.33h244.5c6.49,0,11.75-3.28,11.75-7.33v-.31c0-4.05-5.26-7.34-11.75-7.34h-12.5c-6.49,0-11.75-3.28-11.75-7.33v-.31c0-4.05,5.26-7.33,11.75-7.33h29.5c6.49,0,11.75-3.29,11.75-7.33v-.32c0-4.05-5.26-7.33-11.75-7.33h-26.5c-6.49,0-11.75-3.28-11.75-7.33h0c0-4,5.26-7.33,11.75-7.33h104.5C536.13,356.69,541.39,353.4,541.39,349.35Z"/><path class="cls-10" d="M500.31,207.64a43.3,43.3,0,0,0-22,15.59,3.74,3.74,0,0,1-6,0,43.3,43.3,0,0,0-22-15.59c-15.28-4.49-32.37.43-44.65,12.53a3.74,3.74,0,0,0-.21,5l.05.06a3.75,3.75,0,0,0,5.59.18,39.89,39.89,0,0,1,36.22-11.81c12.95,2.53,20.91,11.11,24.91,16.82a3.76,3.76,0,0,0,6.18,0c4-5.71,12-14.29,24.91-16.82a39.9,39.9,0,0,1,36.23,11.81,3.74,3.74,0,0,0,5.58-.18l0-.06a3.74,3.74,0,0,0-.2-5C532.68,208.07,515.59,203.15,500.31,207.64Z"/></svg>